<svg xmlns="http://www.w3.org/2000/svg" xmlns:xlink="http://www.w3.org/1999/xlink" width="500" viewBox="0 0 375 374.999991" height="500" preserveAspectRatio="xMidYMid meet"><defs><clipPath id="dc930daa70"><path d="M 37.5 45.5625 L 326.25 45.5625 L 326.25 318.5625 L 37.5 318.5625 Z M 37.5 45.5625 "></path></clipPath></defs><g id="db29ce3a82"><g clip-rule="nonzero" clip-path="url(#dc930daa70)"><path style=" stroke:none;fill-rule:nonzero;fill:#fc1270;fill-opacity:1;" d="M 109.394531 204.535156 C 109.558594 204.65625 109.617188 204.691406 109.675781 205.089844 C 109.753906 205.398438 109.824219 205.765625 109.882812 206.160156 C 109.914062 206.53125 109.945312 206.90625 109.976562 207.261719 C 110.027344 208.082031 110.097656 209.078125 110 210.101562 C 109.929688 211.082031 109.617188 212.164062 108.742188 213.03125 C 108.292969 213.464844 107.683594 213.851562 106.828125 214.140625 C 105.976562 214.429688 104.8125 214.605469 103.699219 214.5625 C 103.53125 214.5625 102.757812 214.441406 102.433594 214.273438 C 99.890625 212.449219 98.039062 210.558594 96.210938 208.703125 L 91.226562 203.375 C 90.433594 202.511719 89.667969 201.785156 88.925781 201.085938 L 86.566406 198.738281 L 79.242188 191.367188 C 76.757812 188.898438 74.679688 186.503906 72.378906 184.066406 C 63.546875 174.269531 53.570312 165.574219 44.609375 154.621094 L 42.925781 152.589844 L 42.4375 151.996094 C 42.226562 151.796875 41.914062 151.199219 41.683594 150.832031 C 41.152344 150.167969 40.546875 149.527344 39.992188 148.863281 C 38.851562 147.535156 38.195312 146.199219 37.894531 145.015625 C 37.589844 143.824219 37.535156 142.65625 37.839844 141.269531 C 38.15625 139.917969 38.835938 138.632812 39.726562 137.664062 C 40.523438 136.640625 41.617188 135.820312 42.941406 135.164062 C 44.3125 134.554688 45.820312 134.054688 47.445312 133.734375 C 48.238281 133.535156 49.078125 133.445312 49.890625 133.292969 L 51.566406 133.070312 C 58.75 132.277344 65.628906 132.34375 72.238281 132.371094 L 86.683594 132.410156 C 91.425781 132.265625 96.191406 132.265625 100.914062 132.011719 L 107.980469 131.550781 C 110.34375 131.425781 112.691406 131.242188 115.007812 130.933594 L 121.992188 130.121094 L 123.734375 129.921875 C 124.292969 129.847656 124.980469 129.8125 125.324219 129.675781 C 126.15625 129.394531 127.027344 129.363281 127.839844 128.957031 C 134.570312 126.574219 139.722656 119.34375 143.609375 111.179688 C 145.59375 107.085938 147.339844 102.726562 149.160156 98.230469 L 151.945312 91.558594 C 152.722656 89.605469 153.507812 87.292969 154.292969 85.035156 C 155.863281 80.472656 157.46875 75.824219 159.296875 71.183594 C 161.136719 66.535156 163.101562 61.890625 165.820312 57.226562 C 167.222656 54.898438 168.714844 52.550781 171.066406 50.199219 C 171.6875 49.613281 172.28125 49.035156 173.082031 48.46875 C 173.464844 48.191406 173.808594 47.910156 174.296875 47.648438 C 174.757812 47.40625 175.417969 47 175.949219 46.789062 C 178.160156 45.867188 180.640625 45.5625 182.949219 46.160156 C 185.246094 46.566406 187.542969 48.25 188.757812 49.335938 C 190.078125 50.535156 191.097656 51.765625 191.984375 52.984375 C 193.730469 55.417969 194.996094 57.816406 196.144531 60.191406 C 198.394531 64.90625 200.054688 69.683594 201.757812 73.902344 C 202.628906 75.886719 203.582031 78.257812 204.464844 80.488281 L 207.175781 87.257812 L 209.882812 94.023438 L 212.757812 100.476562 C 214.71875 104.71875 216.503906 109.144531 218.601562 113.242188 C 220.816406 117.261719 223.089844 121.066406 225.765625 123.671875 C 228.390625 126.3125 231.792969 128.125 235.625 129.167969 C 239.488281 130.21875 243.964844 130.574219 248.675781 130.804688 C 251.023438 130.933594 253.46875 131 255.984375 131.175781 C 258.476562 131.246094 261.097656 131.722656 263.425781 131.777344 L 277.433594 132.296875 C 282.160156 132.445312 287.101562 132.472656 291.917969 132.566406 C 296.917969 132.65625 301.21875 132.746094 306.1875 132.632812 C 308.660156 132.613281 311.195312 132.589844 314.054688 132.847656 C 316.164062 133.054688 318.738281 133.535156 320.699219 134.542969 C 322.695312 135.535156 324.269531 137.082031 325.203125 139.0625 C 326.097656 141.058594 326.261719 143.25 325.710938 145.453125 C 325.222656 147.667969 323.910156 149.878906 322.890625 151.566406 C 321.277344 154.050781 319.597656 155.894531 317.945312 157.863281 C 314.632812 161.796875 310.984375 165.320312 307.335938 168.722656 C 299.976562 175.445312 292.492188 181.429688 285.425781 187.785156 C 281.90625 190.960938 278.441406 194.164062 274.882812 197.492188 C 271.425781 200.71875 268.339844 203.828125 266.328125 207.074219 C 264.363281 210.347656 263.503906 213.589844 263.75 217.496094 C 263.988281 221.648438 264.875 226.011719 266.078125 230.414062 C 267.3125 234.839844 268.84375 239.335938 270.355469 243.957031 L 274.792969 257.886719 L 283.695312 285.367188 C 284.4375 287.609375 285.195312 290.09375 285.867188 292.007812 C 286.617188 294.144531 287.691406 296.585938 288.328125 299.820312 C 288.636719 301.421875 288.832031 303.328125 288.472656 305.488281 C 288.144531 307.632812 287.113281 309.933594 285.636719 311.648438 C 284.0625 313.375 282.472656 314.460938 280.824219 315.242188 C 279.167969 316.066406 277.4375 316.558594 275.761719 316.84375 C 272.402344 317.371094 269.261719 317.132812 266.410156 316.546875 C 263.535156 315.957031 260.875 315.066406 258.3125 313.945312 C 256.953125 313.359375 255.921875 312.773438 254.800781 312.199219 L 251.46875 310.460938 C 249.269531 309.238281 246.992188 308.277344 244.855469 306.835938 L 238.398438 302.714844 L 232.417969 298.304688 L 220.851562 289.609375 C 212.785156 283.675781 205.601562 276.695312 198.445312 271.933594 C 196.679688 270.828125 194.941406 269.917969 193.386719 269.382812 C 191.839844 268.929688 190.648438 268.882812 189.527344 269.164062 C 189.074219 269.1875 188.121094 269.71875 187.277344 270.152344 L 185.953125 270.820312 L 184.414062 271.6875 C 182.359375 272.847656 180.308594 273.976562 178.238281 275.207031 C 169.960938 280.015625 161.679688 285.007812 153.402344 289.949219 C 145.089844 294.910156 136.875 299.851562 128.339844 304.785156 C 124.4375 306.988281 120.265625 309.703125 115.929688 312.164062 C 113.746094 313.40625 111.503906 314.621094 109.101562 315.753906 L 107.253906 316.582031 L 106.292969 316.980469 C 106.03125 317.09375 105.347656 317.320312 104.902344 317.484375 C 102.867188 318.203125 100.351562 318.875 98.234375 318.78125 C 96.085938 318.71875 94.085938 318.214844 92.453125 316.894531 C 90.800781 315.589844 89.6875 313.800781 89.289062 311.773438 C 89.15625 311.277344 89.128906 310.726562 89.066406 310.195312 C 89.046875 309.945312 89 309.625 89.019531 309.425781 L 89.109375 308.878906 L 89.480469 306.699219 L 90.21875 302.34375 L 91.695312 293.621094 L 93.367188 286.5 L 98.792969 263.574219 C 99.648438 260.171875 100.261719 256.792969 100.984375 253.402344 C 100.984375 253.402344 102.25 249.074219 103.953125 243.222656 C 105.734375 237.125 107.894531 230.042969 109.105469 223.976562 C 110.015625 218.859375 109.949219 215.695312 109.316406 214.351562 C 109.011719 213.636719 108.460938 213.296875 108.175781 212.941406 C 107.878906 212.617188 107.898438 212.324219 108.195312 212.046875 C 108.546875 211.816406 109.433594 211.535156 110.625 212.023438 C 111.824219 212.492188 112.914062 213.699219 113.609375 215.039062 C 115.019531 217.765625 115.511719 221.164062 115.6875 224.742188 C 115.765625 224.371094 115.875 226.347656 115.738281 229.429688 C 115.613281 232.511719 115.21875 236.699219 114.667969 240.855469 C 114.101562 244.933594 113.527344 249.054688 113.097656 252.15625 C 112.640625 255.292969 112.335938 257.398438 112.335938 257.398438 L 111.277344 262.523438 C 111.109375 263.386719 110.890625 264.214844 110.695312 265.058594 L 108.167969 275.722656 L 104.914062 289.511719 L 103.320312 296.304688 L 102.300781 301.644531 L 101.464844 306.058594 L 101.519531 306.039062 L 102.347656 305.703125 C 102.808594 305.519531 103.289062 305.285156 103.765625 305.082031 C 105.683594 304.191406 107.652344 303.132812 109.625 302.019531 C 113.617188 299.777344 117.441406 297.292969 121.839844 294.757812 L 133.992188 287.628906 L 158.386719 273.066406 L 170.671875 265.808594 C 172.726562 264.601562 174.777344 263.398438 176.910156 262.214844 L 180.082031 260.433594 C 181.1875 259.824219 182.589844 259.160156 183.839844 258.550781 C 184.183594 258.398438 184.4375 258.234375 184.855469 258.097656 L 186.148438 257.71875 C 187.011719 257.480469 187.871094 257.222656 188.777344 257.179688 C 190.59375 256.917969 192.328125 257.070312 194.042969 257.285156 C 197.363281 257.902344 200.105469 259.160156 202.578125 260.496094 C 207.363281 263.269531 211.1875 266.433594 214.917969 269.484375 C 218.621094 272.554688 222.160156 275.566406 225.769531 278.367188 L 237.066406 286.878906 C 244.570312 292.648438 251.742188 297.496094 260.082031 301.492188 C 262.195312 302.648438 263.859375 303.410156 265.765625 304.039062 C 267.632812 304.652344 269.503906 305.058594 271.203125 305.183594 C 272.890625 305.277344 274.34375 305.058594 275.394531 304.621094 C 275.847656 304.382812 276.460938 304.042969 276.507812 303.917969 C 276.628906 303.773438 276.664062 303.796875 276.675781 303.652344 C 276.710938 303.503906 276.753906 303.09375 276.671875 302.445312 C 276.574219 301.78125 276.351562 300.925781 276.054688 300 C 275.75 299.0625 275.359375 298.019531 274.941406 296.894531 C 274.515625 295.78125 274.046875 294.378906 273.703125 293.261719 L 269.3125 279.710938 L 260.59375 252.648438 C 257.929688 243.84375 254.304688 234.832031 252.535156 224.570312 C 252.257812 223.3125 252.207031 221.96875 252.039062 220.671875 C 251.875 219.402344 251.800781 218.003906 251.765625 216.578125 C 251.753906 213.695312 252.117188 210.65625 252.988281 207.773438 C 254.785156 201.960938 258.355469 197.226562 261.902344 193.511719 C 263.6875 191.632812 265.492188 189.925781 267.246094 188.285156 L 272.46875 183.4375 C 276 180.140625 279.613281 176.976562 283.226562 173.832031 C 290.460938 167.566406 297.785156 161.65625 304.109375 155.261719 C 305.628906 153.625 307.300781 152.078125 308.660156 150.347656 C 310.058594 148.660156 311.636719 146.925781 312.664062 145.363281 L 313.066406 144.753906 L 313.03125 144.753906 L 312.082031 144.671875 L 310.523438 144.597656 C 309.457031 144.5625 308.335938 144.5625 307.1875 144.570312 L 300.042969 144.636719 L 285.71875 144.414062 L 278.640625 144.296875 L 271.3125 144.019531 L 263.988281 143.734375 C 262.785156 143.671875 261.5 143.667969 260.367188 143.554688 L 256.988281 143.210938 C 252.558594 142.855469 247.789062 142.835938 242.757812 142.402344 C 237.789062 141.964844 232.257812 141.132812 227.035156 138.746094 C 221.832031 136.507812 217.023438 132.5 213.785156 128.070312 C 212.140625 125.878906 210.78125 123.664062 209.523438 121.496094 C 208.265625 119.308594 207.050781 117.117188 206.128906 114.886719 L 200.152344 101.574219 C 198.132812 97.121094 196.582031 92.816406 194.773438 88.429688 L 192.152344 81.875 C 191.261719 79.75 190.167969 77.226562 189.367188 75.050781 C 187.675781 70.636719 186.035156 66.398438 184.046875 62.78125 C 183.078125 60.980469 181.957031 59.363281 180.980469 58.417969 C 180.761719 58.195312 180.488281 58.027344 180.40625 57.914062 L 180.402344 57.90625 L 180.414062 57.90625 C 180.464844 57.882812 180.527344 57.863281 180.410156 57.910156 C 180.222656 58.082031 180.027344 58.152344 179.769531 58.421875 C 179.277344 58.84375 178.707031 59.503906 178.152344 60.226562 C 177.035156 61.6875 175.953125 63.5 174.957031 65.398438 C 170.9375 73.148438 167.992188 82.015625 164.878906 90.988281 L 163.640625 94.457031 L 162.925781 96.292969 L 162.179688 98.046875 L 159.527344 104.480469 C 157.738281 108.882812 155.875 113.414062 153.601562 117.921875 C 151.320312 122.417969 148.636719 126.945312 144.964844 131.078125 C 141.328125 135.167969 136.457031 138.914062 130.664062 140.648438 C 129.242188 141.003906 127.621094 141.460938 126.335938 141.648438 L 122.707031 142.074219 L 115.441406 142.917969 C 110.597656 143.492188 105.777344 143.617188 100.941406 143.988281 C 96.121094 144.210938 91.316406 144.242188 86.507812 144.375 L 72.261719 144.332031 C 65.539062 144.292969 59.050781 144.273438 52.964844 144.949219 L 52.160156 145.050781 C 52.164062 145.027344 52.015625 144.820312 52.097656 144.925781 L 52.40625 145.292969 L 53.917969 147.113281 C 61.835938 156.851562 72.015625 165.84375 81.066406 175.839844 C 83.34375 178.25 85.648438 180.890625 87.90625 183.117188 L 94.683594 189.945312 L 96.308594 191.589844 L 97.015625 192.273438 C 98.046875 193.230469 99.027344 194.1875 99.875 195.109375 L 104.824219 200.398438 C 106.390625 201.992188 107.980469 203.550781 109.394531 204.535156 "></path></g><path style=" stroke:none;fill-rule:nonzero;fill:#fc1270;fill-opacity:1;" d="M 54.160156 149.332031 C 53.945312 149.183594 53.863281 149.171875 53.707031 148.765625 C 53.109375 147.527344 52.464844 145.511719 52.789062 143.507812 C 53.152344 141.542969 54.476562 139.511719 58.863281 138.832031 C 59.019531 138.8125 59.761719 138.777344 60.042969 138.902344 C 64.125 141.257812 67.722656 143.960938 71.136719 146.699219 L 76.050781 150.839844 L 76.652344 151.355469 L 82.039062 155.933594 C 85.976562 159.171875 90.257812 162.4375 94.351562 165.6875 C 110.941406 178.679688 127.933594 191.804688 143.445312 206.863281 C 158.6875 221.859375 172.730469 237.535156 189 249.808594 L 192.050781 252.078125 L 192.816406 252.644531 L 193.007812 252.789062 C 178.976562 272.109375 189 258.046875 185.8125 262.316406 L 185.402344 261.976562 L 183.757812 260.617188 C 181.511719 258.851562 179.515625 256.878906 177.464844 254.949219 C 173.542969 250.984375 169.859375 246.851562 166.480469 242.621094 C 163.089844 238.421875 159.828125 234.117188 156.671875 230.003906 C 153.449219 225.894531 150.085938 221.917969 146.800781 217.867188 C 135.027344 203.84375 122.421875 190.75 108.820312 178.449219 C 101.59375 171.839844 95.484375 164.777344 89.105469 158.441406 C 85.9375 155.238281 82.679688 152.347656 79.335938 149.6875 C 78.496094 149.039062 77.621094 148.503906 76.769531 147.902344 L 75.484375 147.015625 L 74.84375 146.570312 L 74.761719 146.515625 C 88.5 127.050781 78.59375 141.140625 81.667969 136.804688 L 81.710938 136.839844 L 81.878906 136.980469 L 82.210938 137.261719 L 87.550781 141.757812 C 116.277344 165.492188 143.863281 190.367188 171.917969 214.425781 L 179.898438 221.332031 L 188.035156 227.996094 L 204.3125 241.328125 L 212.449219 247.992188 C 215.210938 250.289062 218.101562 252.625 220.847656 254.996094 C 226.242188 259.847656 231.414062 264.859375 236.394531 269.863281 C 246.390625 279.851562 256.109375 289.667969 267.082031 297.363281 L 267.207031 297.460938 C 274.582031 289.9375 257.242188 307.765625 259 305.898438 L 258.953125 305.832031 L 258.753906 305.585938 L 258.359375 305.085938 L 257.566406 304.085938 L 255.988281 302.089844 L 252.832031 298.09375 L 246.011719 290.417969 C 243.664062 287.90625 241.199219 285.46875 238.800781 282.992188 C 236.359375 280.535156 233.800781 278.15625 231.304688 275.738281 C 221.171875 266.144531 210.527344 256.800781 200.367188 246.636719 L 185.304688 232.015625 C 180.339844 227.148438 174.992188 222.480469 169.855469 217.703125 C 159.507812 208.109375 148.941406 198.59375 139.046875 188.144531 C 133.929688 183.003906 129.207031 177.933594 124.394531 172.851562 L 117.1875 165.222656 C 114.761719 162.703125 112.234375 160.265625 109.765625 157.777344 L 102.894531 150.933594 L 99.460938 147.511719 L 99.027344 147.082031 L 98.757812 146.8125 C 92.226562 155.160156 107.585938 135.371094 106.039062 137.4375 L 106.171875 137.527344 L 107.238281 138.242188 L 109.367188 139.683594 C 112.214844 141.59375 115.09375 143.480469 117.664062 145.664062 C 120.308594 147.777344 123.007812 149.847656 125.4375 152.136719 C 135.496094 161.023438 144.453125 170.679688 153.472656 179.910156 C 157.984375 184.550781 162.492188 188.984375 167.21875 193.335938 L 181.699219 206.3125 C 191.375 214.953125 200.9375 223.644531 210.800781 232.214844 L 240.132812 257.9375 C 249.683594 266.308594 260.21875 274.222656 269.929688 283.660156 C 272.292969 286.132812 274.75 288.460938 276.9375 291.175781 L 278.621094 293.152344 L 279.460938 294.140625 L 279.511719 294.203125 C 265.476562 312.570312 275.570312 299.265625 272.414062 303.355469 L 272.238281 303.261719 L 271.882812 303.074219 L 271.175781 302.695312 L 268.375 301.121094 L 266.089844 299.378906 L 264.957031 298.5 L 263.992188 297.644531 L 262.066406 295.933594 C 260.871094 294.828125 259.640625 293.863281 258.484375 292.660156 L 251.515625 285.59375 L 237.589844 271.449219 L 224.289062 257.09375 C 215.191406 247.355469 206.375 237.363281 197.460938 227.457031 C 188.496094 217.722656 179.707031 207.765625 170.429688 198.421875 C 161.429688 188.730469 151.679688 179.984375 142.148438 170.960938 C 139.710938 168.835938 137.195312 166.878906 134.722656 164.820312 L 126.835938 158.644531 C 124.195312 156.382812 121.496094 154.320312 118.914062 151.886719 L 115.105469 148.0625 L 113.210938 146.144531 L 112.972656 145.902344 L 112.855469 145.78125 C 116.1875 141.726562 105.316406 154.78125 120.304688 136.667969 L 120.375 136.714844 L 120.929688 137.0625 L 122.039062 137.761719 C 134.054688 145.035156 144.378906 154.046875 154.355469 162.933594 C 159.347656 167.390625 164.230469 171.839844 169.179688 176.125 C 174.125 180.375 179.214844 184.460938 184.421875 188.691406 C 194.734375 197.089844 205.15625 205.421875 215.351562 214.167969 L 219.195312 217.414062 L 222.9375 220.796875 L 230.421875 227.574219 C 235.421875 232.058594 240.117188 236.507812 245.125 240.757812 C 247.464844 242.847656 249.871094 244.820312 252.300781 246.753906 C 254.707031 248.730469 257.132812 250.671875 259.652344 252.4375 L 263.386719 255.171875 L 264.320312 255.851562 L 264.554688 256.023438 L 264.675781 256.109375 C 261.21875 260.105469 272.488281 247.226562 256.941406 265.082031 L 256.890625 265.027344 L 256.484375 264.609375 L 254.851562 262.929688 L 248.328125 256.203125 C 243.996094 251.707031 239.257812 247.527344 234.746094 243.175781 C 230.027344 238.980469 225.355469 234.761719 220.5625 230.609375 C 201.433594 214.023438 181.484375 197.777344 163.355469 179.292969 L 136.921875 151.574219 L 130.386719 144.699219 L 127.117188 141.257812 L 126.300781 140.402344 L 126.09375 140.1875 L 125.992188 140.078125 C 139.613281 120.953125 129.8125 134.804688 132.871094 130.542969 L 132.945312 130.585938 L 133.546875 130.921875 L 135.953125 132.289062 C 142.246094 136.0625 147.167969 140.792969 151.796875 145.398438 C 156.40625 150.011719 160.640625 154.726562 165.046875 158.621094 L 179.363281 171.230469 L 208.042969 196.46875 L 232.203125 217.753906 C 240.148438 224.851562 248.035156 231.378906 256.796875 235.527344 C 263.554688 227.859375 247.660156 246.003906 249.277344 244.113281 L 249.25 244.070312 L 249.1875 243.984375 L 248.8125 243.464844 L 248.320312 242.765625 L 247.332031 241.367188 L 245.023438 238.644531 L 242.460938 235.984375 L 239.703125 233.378906 C 235.886719 229.878906 231.835938 226.660156 227.507812 222.695312 L 204.363281 200.328125 L 181.246094 177.757812 C 177.414062 173.953125 173.503906 170.289062 169.730469 166.371094 C 165.96875 162.386719 162.242188 158.414062 158.683594 154.511719 L 155.976562 151.570312 L 153.242188 148.792969 C 151.402344 146.96875 149.628906 145.019531 147.738281 143.304688 L 141.992188 138.34375 L 140.558594 137.097656 L 140.515625 137.0625 C 133.347656 144.886719 150.21875 126.351562 148.503906 128.28125 L 148.589844 128.371094 L 148.761719 128.546875 L 149.792969 129.589844 L 152.542969 132.375 C 159.746094 139.910156 167.8125 146.738281 175.890625 153.539062 C 191.773438 166.535156 208.714844 178.625 225.179688 191.523438 C 233.449219 197.878906 241.519531 204.382812 249.808594 209.878906 L 252.941406 211.863281 L 254.503906 212.855469 L 254.898438 213.105469 L 254.996094 213.167969 L 255.042969 213.199219 C 251.800781 217.335938 262.378906 203.984375 247.78125 222.480469 L 247.609375 222.308594 L 246.929688 221.621094 L 241.484375 216.097656 L 230.601562 205.0625 L 208.417969 183.164062 L 197.363281 172.039062 C 193.710938 168.292969 189.921875 164.710938 186.425781 160.777344 L 175.757812 149.195312 L 170.429688 143.417969 C 168.714844 141.804688 167.175781 140.160156 165.355469 138.53125 L 159.503906 133.636719 L 156.417969 131.050781 L 154.878906 129.757812 L 153.34375 128.277344 L 150.285156 125.273438 L 149.527344 124.519531 L 149.144531 124.140625 C 147.558594 126.125 162.714844 106.605469 156.328125 114.886719 L 156.386719 114.921875 L 156.503906 114.984375 L 156.730469 115.117188 L 158.566406 116.175781 L 162.234375 118.300781 C 163.40625 119.058594 164.515625 119.871094 165.660156 120.652344 C 173.800781 126.367188 180.800781 132.960938 187.648438 139.289062 C 191.078125 142.460938 194.4375 145.574219 197.882812 148.488281 L 208.519531 157.558594 L 219.203125 166.65625 C 222.777344 169.625 226.359375 172.425781 229.933594 175.324219 L 240.65625 183.949219 C 244.757812 186.851562 248.375 190.214844 251.589844 192.289062 L 252.792969 193.050781 L 253.90625 193.609375 C 254.292969 193.839844 254.617188 193.933594 254.917969 194.019531 L 255.382812 194.183594 L 255.5 194.226562 L 255.585938 194.261719 C 252.945312 198.550781 261.539062 184.683594 249.675781 203.878906 L 249.398438 203.589844 L 245 198.9375 L 240.023438 194.464844 C 238.335938 192.972656 236.496094 191.492188 234.742188 190.003906 C 227.332031 183.75 220.496094 177.621094 213.457031 171.484375 L 192.449219 153.054688 C 185.429688 146.945312 178.507812 140.636719 171.308594 134.894531 C 164.464844 129.226562 157.375 123.5625 150.886719 116.765625 L 146.050781 111.625 L 145.976562 111.546875 C 144.46875 113.554688 158.890625 93.863281 152.8125 102.210938 L 152.867188 102.234375 L 153.066406 102.324219 L 153.46875 102.507812 L 154.28125 102.875 L 155.898438 103.609375 C 156.96875 104.105469 158.0625 104.570312 159.117188 105.101562 C 161.179688 106.21875 163.285156 107.28125 165.300781 108.464844 C 167.277344 109.699219 169.316406 110.855469 171.230469 112.164062 C 186.714844 122.472656 199.660156 135.261719 212.339844 147.691406 C 218.65625 153.902344 224.972656 160.152344 231.34375 165.878906 L 233.71875 168.011719 L 236.265625 170.101562 L 241.359375 174.289062 C 244.734375 177.066406 248.089844 179.628906 251.523438 181.890625 C 253.234375 183.046875 254.980469 184.023438 256.730469 184.964844 C 257.597656 185.460938 258.5 185.777344 259.378906 186.199219 L 260.039062 186.496094 L 260.371094 186.652344 L 260.535156 186.726562 L 260.621094 186.765625 C 267.074219 178.980469 251.882812 197.394531 253.429688 195.476562 L 253.402344 195.4375 L 252.484375 194.140625 L 248.828125 188.949219 L 247.003906 186.351562 C 246.375 185.496094 245.640625 184.707031 244.96875 183.882812 C 239.585938 177.261719 233.671875 170.984375 227.320312 165.070312 C 216.054688 154.433594 203.726562 144.71875 191.242188 135.007812 L 181.882812 127.765625 L 172.367188 120.617188 C 165.976562 115.691406 159.425781 110.386719 153.902344 103.625 L 151.917969 101.007812 L 150.929688 99.699219 L 150.808594 99.535156 L 150.742188 99.453125 C 165.648438 81.988281 154.902344 94.625 158.238281 90.734375 L 158.625 90.945312 L 159.308594 91.3125 L 164.800781 94.304688 C 166.609375 95.328125 168.503906 96.246094 170.242188 97.359375 L 175.359375 100.816406 L 180.476562 104.28125 L 185.28125 108.054688 L 190.082031 111.832031 C 191.679688 113.097656 193.148438 114.464844 194.6875 115.777344 C 206.941406 126.308594 218.191406 137.597656 229.71875 148.210938 L 238.511719 156.058594 L 247.492188 163.9375 C 253.386719 169.039062 259.367188 173.675781 265.777344 176.792969 L 266.96875 177.386719 L 267.269531 177.539062 L 267.417969 177.613281 L 267.457031 177.628906 C 269.71875 178.09375 264.476562 177.023438 264.753906 177.140625 C 264.566406 177.152344 264.378906 177.171875 264.199219 177.203125 L 265.042969 182.472656 C 265.070312 182.5625 265.101562 182.636719 265.121094 182.636719 C 265.054688 182.585938 264.972656 182.570312 264.90625 182.578125 L 264.859375 182.589844 C 269.195312 180.773438 258.902344 185.082031 259.960938 184.628906 L 259.9375 184.574219 C 259.664062 184.027344 259.480469 183.46875 259.054688 182.835938 C 258.359375 181.597656 257.285156 180.265625 256.164062 178.964844 C 253.828125 176.355469 251.03125 173.8125 248.105469 171.328125 C 245.167969 168.835938 242.078125 166.410156 238.925781 163.855469 C 237.34375 162.5625 235.742188 161.265625 234.125 159.808594 L 229.609375 155.917969 C 223.597656 150.800781 217.683594 145.582031 211.59375 140.546875 L 193.015625 125.75 L 183.457031 118.167969 C 180.394531 115.472656 177.207031 112.886719 174.25 110.085938 C 171.273438 107.304688 168.269531 104.550781 165.433594 101.652344 L 162.199219 98.429688 L 161.660156 97.894531 L 161.523438 97.761719 L 161.492188 97.726562 C 164.851562 93.660156 153.921875 106.78125 169.019531 88.597656 L 169.097656 88.652344 L 169.410156 88.875 L 174.410156 92.414062 C 199.183594 109.890625 220.144531 131.269531 241.964844 150.765625 L 250.230469 158.15625 C 252.984375 160.625 255.675781 163.035156 258.40625 165.296875 C 263.835938 169.792969 269.519531 173.832031 275.328125 175.921875 L 277.484375 176.59375 L 278.554688 176.820312 L 279.089844 176.9375 L 279.355469 176.996094 L 279.488281 177.027344 C 284.65625 168.65625 272.492188 188.4375 273.730469 186.382812 L 273.703125 186.351562 L 273.652344 186.28125 L 270.359375 181.925781 C 268.128906 179.0625 266.050781 176.035156 263.699219 173.296875 L 256.796875 164.917969 L 249.496094 156.996094 C 248.519531 155.96875 247.59375 154.867188 246.570312 153.902344 L 243.472656 151.046875 L 237.277344 145.320312 L 237.183594 145.230469 C 240.714844 141.285156 229.140625 153.945312 245.078125 136.359375 L 246.476562 137.734375 L 248.046875 139.289062 L 251.140625 142.359375 C 253.195312 144.375 255.25 146.355469 257.339844 148.269531 C 261.503906 152.089844 265.800781 155.707031 270.242188 158.671875 C 271.34375 159.460938 272.476562 160.035156 273.589844 160.734375 L 275.828125 161.871094 L 275.890625 161.886719 L 275.894531 161.835938 L 275.878906 161.808594 L 274.148438 159.203125 C 272.605469 156.980469 270.898438 154.757812 269.125 152.519531 L 266.394531 149.105469 L 264.996094 147.335938 L 264.296875 146.449219 L 264.210938 146.339844 C 268.144531 142.804688 255.28125 154.097656 273.011719 138.386719 L 273.210938 138.582031 L 273.605469 138.976562 L 280.339844 145.621094 C 281.136719 146.414062 281.941406 147.144531 282.742188 147.859375 C 284.339844 149.339844 285.964844 150.636719 287.601562 151.832031 C 287.601562 151.832031 287.613281 151.84375 287.855469 152.007812 C 287.925781 152.066406 288.246094 152.324219 288.785156 152.765625 C 289.058594 152.988281 289.386719 153.25 289.769531 153.558594 C 290.160156 153.8125 290.605469 154.097656 291.105469 154.417969 L 291.121094 154.429688 C 291.5625 154.703125 292.035156 155.09375 292.574219 155.371094 C 293.113281 155.636719 293.699219 155.925781 294.335938 156.238281 L 294.746094 156.449219 L 294.957031 156.558594 L 295.007812 156.585938 L 295.035156 156.597656 L 295.035156 156.601562 C 292.144531 158.542969 301.511719 152.253906 288.558594 160.957031 L 288.558594 160.910156 C 288.574219 160.800781 288.613281 160.6875 288.679688 160.558594 C 288.683594 160.246094 288.726562 159.855469 288.59375 159.289062 C 288.371094 158.160156 287.691406 156.582031 286.945312 154.707031 C 286.761719 154.21875 286.574219 153.78125 286.398438 153.226562 L 286.132812 152.433594 L 286.003906 152.042969 L 285.988281 151.988281 L 285.976562 151.953125 L 285.976562 151.945312 C 285.019531 153.097656 294.277344 141.90625 290.363281 146.644531 L 290.472656 146.683594 L 290.6875 146.757812 C 291.875 147.15625 292.992188 147.601562 293.859375 148.105469 C 294.84375 148.597656 295.542969 149.074219 296.351562 149.550781 L 297.40625 150.1875 L 297.929688 150.507812 L 297.941406 150.515625 L 297.953125 150.519531 L 297.953125 150.523438 C 296.15625 151.777344 301.988281 147.714844 293.921875 153.339844 L 293.933594 153.277344 L 293.957031 153.148438 L 294.007812 152.898438 L 294.117188 152.398438 C 294.210938 151.984375 294.316406 151.488281 294.433594 151.1875 L 294.765625 150.382812 C 294.972656 149.902344 295.175781 149.4375 295.367188 148.996094 C 295.796875 148.101562 295.917969 147.613281 296.167969 147.058594 C 296.859375 146.34375 297.550781 145.632812 298.21875 144.945312 C 301.417969 145.351562 303.449219 146.628906 304.296875 147.636719 C 305.179688 148.648438 305.175781 149.214844 304.773438 149.453125 C 304.328125 149.679688 303.507812 149.628906 302.449219 149.5625 C 301.355469 149.542969 299.964844 149.617188 298.289062 149.941406 L 301.160156 146.988281 C 301.179688 147.648438 301.175781 148.347656 301.136719 149.082031 C 301.085938 149.746094 300.988281 150.238281 300.902344 150.851562 C 300.722656 151.921875 300.558594 153.152344 300.640625 153.199219 L 300.6875 153.199219 C 300.511719 153.203125 300.234375 153.210938 299.867188 153.222656 C 299.667969 153.234375 299.449219 153.246094 299.203125 153.257812 L 299.0625 153.265625 C 302.214844 150.066406 294.757812 157.628906 295.527344 156.851562 L 295.523438 156.851562 L 295.5 156.84375 L 295.449219 156.832031 C 295.164062 156.742188 294.699219 156.597656 294.082031 156.40625 C 292.867188 156.019531 291.242188 155.371094 289.769531 155.046875 L 289.261719 154.96875 L 288.875 154.898438 L 288.84375 154.890625 L 288.824219 154.886719 C 298.730469 142.910156 291.574219 151.570312 293.785156 148.898438 L 293.789062 148.902344 L 293.792969 148.910156 L 293.832031 148.984375 C 294.046875 149.371094 294.269531 149.769531 294.5 150.175781 C 295.089844 151.15625 295.714844 152.175781 296.34375 153.21875 C 297.035156 154.367188 297.792969 155.871094 298.339844 157.644531 C 298.558594 158.621094 298.832031 159.542969 298.824219 160.644531 L 298.84375 161.441406 L 298.84375 161.839844 L 298.839844 162.035156 L 298.839844 162.085938 C 295.882812 164.078125 305.460938 157.652344 292.203125 166.550781 L 292.199219 166.550781 L 292.179688 166.542969 L 292.113281 166.523438 L 291.066406 166.210938 C 289.179688 165.652344 287.378906 165.074219 285.9375 164.3125 L 285.910156 164.296875 C 283.777344 163.382812 282.226562 162.359375 281.066406 161.664062 C 279.855469 160.957031 279.246094 160.488281 279.246094 160.488281 L 276.601562 158.363281 L 274.148438 156.167969 C 273.3125 155.4375 272.566406 154.691406 271.796875 153.953125 L 267.835938 150.050781 L 265.121094 147.359375 L 264.785156 147.023438 L 264.699219 146.941406 C 262.707031 148.613281 281.582031 131.902344 273.636719 139.027344 L 273.78125 139.214844 L 274.367188 139.957031 L 275.539062 141.4375 L 280.429688 147.613281 C 282.066406 149.757812 283.703125 151.957031 285.234375 154.34375 C 285.84375 155.039062 287.210938 157.886719 288.328125 160.015625 L 289.195312 161.703125 L 289.625 162.546875 L 289.882812 163.351562 L 290.921875 166.582031 C 291.621094 168.6875 292.289062 170.996094 292.964844 173.269531 L 293.21875 174.121094 C 293.328125 174.316406 293.164062 174.300781 293.039062 174.3125 L 292.675781 174.363281 L 291.117188 174.574219 L 287.882812 175.015625 L 284.949219 175.414062 L 283.496094 175.613281 C 282.964844 175.605469 282.394531 175.535156 281.851562 175.496094 L 278.542969 175.226562 C 277.402344 175.011719 276.179688 174.527344 275 174.191406 C 273.820312 173.789062 272.601562 173.519531 271.453125 173.007812 L 269.152344 171.863281 C 267.773438 171.230469 266.621094 170.433594 265.363281 169.710938 C 262.933594 168.203125 260.667969 166.578125 258.488281 164.902344 C 254.140625 161.535156 250.144531 157.9375 246.296875 154.273438 L 240.644531 148.75 L 237.902344 146.03125 L 237.222656 145.367188 L 236.886719 145.03125 L 236.800781 144.949219 C 229.609375 152.855469 246.484375 134.0625 244.800781 136.046875 L 244.984375 136.21875 L 246.46875 137.585938 L 252.410156 143.0625 L 255.375 145.808594 L 258.101562 148.734375 L 265.816406 157.113281 L 273.011719 165.84375 C 275.472656 168.714844 277.585938 171.789062 279.890625 174.753906 L 283.285156 179.242188 L 283.363281 179.34375 C 284.640625 177.308594 272.382812 197.238281 277.542969 188.796875 L 277.339844 188.753906 L 276.929688 188.667969 L 276.105469 188.496094 L 274.464844 188.136719 C 273.417969 187.820312 272.355469 187.515625 271.332031 187.164062 C 263.179688 184.179688 256.71875 179.339844 250.789062 174.476562 C 247.828125 172.027344 245.015625 169.503906 242.269531 167.039062 L 234.011719 159.660156 C 211.816406 139.792969 191.152344 118.789062 167.523438 102.152344 L 162.753906 98.78125 L 162.457031 98.566406 L 162.382812 98.515625 C 177.605469 80.226562 166.621094 93.460938 170.027344 89.386719 L 170.710938 90.070312 L 171.753906 91.109375 L 173.835938 93.183594 C 176.582031 95.988281 179.460938 98.625 182.3125 101.289062 C 185.144531 103.980469 188.167969 106.414062 191.082031 108.996094 L 200.277344 116.285156 L 219.140625 131.308594 C 225.347656 136.4375 231.402344 141.777344 237.539062 147.003906 L 242.089844 150.921875 C 243.433594 152.136719 244.933594 153.355469 246.4375 154.589844 C 249.480469 157.050781 252.667969 159.554688 255.816406 162.226562 C 258.96875 164.90625 262.113281 167.722656 265.101562 171.0625 C 266.578125 172.777344 268.046875 174.554688 269.339844 176.785156 C 270.007812 177.828125 270.574219 179.128906 271.113281 180.402344 L 271.164062 180.519531 C 271.097656 180.027344 271.855469 184.5625 271.519531 182.945312 C 271.503906 183.148438 271.480469 183.355469 271.449219 183.558594 C 271.320312 184.382812 271.023438 185.21875 270.628906 185.90625 C 270.230469 186.613281 269.496094 187.40625 268.71875 187.933594 C 267.855469 188.519531 267.367188 188.652344 266.632812 188.867188 C 266.324219 188.953125 265.886719 189.027344 265.4375 189.054688 C 265.683594 189.183594 260.382812 188.097656 262.628906 188.542969 L 262.585938 188.519531 L 262.398438 188.429688 L 262.027344 188.246094 L 260.539062 187.511719 C 252.570312 183.613281 245.875 178.300781 239.71875 172.988281 L 230.707031 165.085938 L 221.644531 157 C 209.855469 146.136719 198.703125 134.953125 186.90625 124.824219 C 185.429688 123.566406 183.996094 122.230469 182.484375 121.035156 L 177.945312 117.464844 L 173.402344 113.894531 L 168.671875 110.699219 L 163.945312 107.496094 C 162.351562 106.472656 160.660156 105.671875 159.023438 104.746094 L 154.078125 102.042969 L 153.464844 101.703125 L 153.15625 101.53125 L 153.117188 101.511719 C 156.449219 97.582031 145.597656 110.277344 160.582031 92.695312 L 160.734375 92.894531 L 161.539062 93.949219 L 163.144531 96.070312 C 167.652344 101.617188 173.480469 106.425781 179.625 111.144531 L 189.121094 118.277344 L 198.5625 125.585938 C 211.09375 135.332031 223.710938 145.253906 235.507812 156.386719 C 242.144531 162.574219 248.449219 169.238281 254.265625 176.402344 C 254.996094 177.292969 255.773438 178.140625 256.460938 179.074219 L 258.46875 181.917969 L 262.484375 187.621094 L 263.484375 189.046875 L 263.511719 189.089844 C 265.109375 187.207031 249.792969 205.71875 256.246094 197.871094 L 256.140625 197.820312 L 255.925781 197.726562 L 255.496094 197.535156 L 254.640625 197.15625 C 253.515625 196.625 252.324219 196.167969 251.257812 195.574219 C 249.089844 194.414062 246.96875 193.210938 244.996094 191.878906 C 241.007812 189.261719 237.3125 186.414062 233.828125 183.550781 L 228.636719 179.28125 L 226.035156 177.144531 L 223.449219 174.835938 C 216.613281 168.6875 210.3125 162.433594 203.96875 156.199219 C 191.339844 143.796875 178.796875 131.523438 164.652344 122.121094 C 162.898438 120.925781 161.070312 119.898438 159.289062 118.773438 C 157.472656 117.710938 155.609375 116.78125 153.78125 115.773438 C 152.847656 115.308594 151.894531 114.910156 150.953125 114.472656 L 149.539062 113.828125 L 148.835938 113.507812 L 148.480469 113.347656 L 148.304688 113.265625 L 148.257812 113.246094 C 142.113281 121.628906 156.578125 101.796875 155.109375 103.859375 L 155.175781 103.929688 L 159.476562 108.480469 C 165.242188 114.539062 172.050781 120.023438 178.875 125.664062 L 178.878906 125.664062 C 186.285156 131.582031 193.1875 137.871094 200.261719 144.027344 L 221.398438 162.570312 C 228.441406 168.71875 235.53125 175.058594 242.410156 180.855469 C 244.214844 182.382812 246.015625 183.832031 247.832031 185.433594 L 253.273438 190.332031 L 258.507812 195.875 L 258.835938 196.222656 C 246.921875 215.546875 255.488281 201.566406 252.8125 205.871094 L 252.285156 205.710938 L 251.082031 205.320312 C 250.265625 205.0625 249.488281 204.769531 248.851562 204.421875 C 248.179688 204.085938 247.484375 203.75 246.835938 203.398438 L 245.070312 202.289062 C 240.460938 199.230469 237.25 196.128906 233.710938 193.660156 L 222.578125 184.726562 C 218.890625 181.746094 215.117188 178.785156 211.5 175.777344 L 200.84375 166.707031 L 190.148438 157.585938 C 186.460938 154.460938 182.964844 151.21875 179.539062 148.046875 C 172.679688 141.699219 166 135.460938 158.824219 130.441406 C 157.824219 129.757812 156.839844 129.027344 155.828125 128.378906 L 152.746094 126.597656 L 151.207031 125.703125 L 151.011719 125.589844 L 150.917969 125.535156 L 150.867188 125.503906 C 144.414062 133.8125 159.597656 114.148438 158.054688 116.195312 L 158.371094 116.496094 L 159 117.109375 L 161.511719 119.570312 L 162.769531 120.800781 L 164.21875 122.011719 L 167.113281 124.433594 L 173.222656 129.550781 C 175.28125 131.382812 177.332031 133.511719 179.363281 135.5 L 184.617188 141.191406 L 195.078125 152.554688 C 198.492188 156.394531 202.265625 159.964844 205.875 163.660156 L 216.808594 174.667969 L 239.023438 196.601562 L 250.046875 207.773438 L 255.558594 213.363281 L 256.246094 214.058594 L 256.417969 214.234375 C 241.761719 232.847656 252.324219 219.371094 249.039062 223.519531 L 248.984375 223.484375 L 248.875 223.417969 L 248.441406 223.144531 L 246.714844 222.054688 L 243.253906 219.863281 C 234.214844 213.855469 226.082031 207.265625 217.863281 200.957031 C 201.589844 188.203125 184.640625 176.125 168.320312 162.773438 C 159.996094 155.765625 151.652344 148.707031 144.015625 140.734375 L 141.113281 137.796875 L 140.390625 137.058594 L 140.027344 136.691406 L 139.847656 136.507812 L 139.757812 136.414062 C 137.980469 138.304688 154.957031 119.695312 147.796875 127.597656 L 147.847656 127.640625 L 149.460938 129.027344 L 155.894531 134.578125 C 157.96875 136.472656 159.816406 138.492188 161.785156 140.445312 L 164.691406 143.402344 L 167.433594 146.378906 C 171.101562 150.402344 174.714844 154.25 178.316406 158.0625 C 181.980469 161.871094 185.898438 165.550781 189.679688 169.300781 L 212.605469 191.683594 L 235.742188 214.042969 C 239.316406 217.324219 243.65625 220.808594 247.75 224.554688 L 250.839844 227.472656 L 253.859375 230.605469 L 256.753906 234.023438 L 258.097656 235.902344 L 258.761719 236.851562 L 259.257812 237.5625 L 259.339844 237.679688 L 259.378906 237.742188 C 261.058594 235.898438 245.011719 254.070312 251.769531 246.359375 C 241.0625 241.285156 232.316406 233.839844 224.289062 226.703125 L 200.164062 205.449219 L 200.164062 205.445312 L 171.484375 180.207031 L 157.128906 167.566406 C 151.992188 163.003906 147.722656 158.203125 143.324219 153.820312 C 138.960938 149.445312 134.539062 145.347656 129.886719 142.582031 L 128.148438 141.578125 L 127.714844 141.324219 L 127.660156 141.292969 C 130.710938 137.007812 120.75 150.835938 134.488281 131.679688 L 134.59375 131.789062 L 134.800781 132.007812 L 135.628906 132.878906 L 145.566406 143.328125 L 171.867188 170.90625 C 189.429688 188.824219 209.042969 204.824219 228.390625 221.585938 C 233.226562 225.769531 238.007812 230.085938 242.804688 234.351562 C 247.460938 238.835938 252.285156 243.097656 256.792969 247.769531 L 263.570312 254.757812 L 265.261719 256.503906 L 265.6875 256.941406 L 265.738281 256.996094 C 250.175781 274.96875 261.390625 261.949219 257.898438 265.953125 L 257.777344 265.859375 L 257.527344 265.679688 L 256.53125 264.953125 L 252.558594 262.050781 C 249.863281 260.15625 247.316406 258.117188 244.800781 256.050781 C 242.246094 254.019531 239.730469 251.957031 237.320312 249.804688 C 232.179688 245.445312 227.214844 240.742188 222.316406 236.347656 L 215.007812 229.734375 L 211.351562 226.433594 L 207.574219 223.242188 C 197.582031 214.667969 187.222656 206.382812 176.914062 197.988281 C 171.800781 193.832031 166.511719 189.589844 161.371094 185.171875 C 156.265625 180.753906 151.320312 176.238281 146.390625 171.84375 C 136.542969 163.050781 126.671875 154.523438 115.898438 148.011719 L 114.894531 147.378906 L 114.398438 147.058594 L 114.335938 147.023438 C 129.332031 128.8125 118.523438 142.003906 121.882812 137.953125 L 122.183594 138.253906 L 123.804688 139.871094 L 127.027344 143.117188 C 129.28125 145.246094 131.878906 147.230469 134.28125 149.300781 L 142.097656 155.421875 C 144.746094 157.609375 147.476562 159.75 150.046875 161.992188 C 159.84375 171.242188 169.894531 180.289062 179.007812 190.101562 C 188.476562 199.640625 197.296875 209.632812 206.347656 219.464844 C 215.226562 229.332031 224.007812 239.285156 233.070312 248.984375 L 246.300781 263.265625 L 259.757812 276.9375 L 266.480469 283.777344 C 267.578125 284.925781 268.90625 285.988281 270.101562 287.085938 L 271.820312 288.613281 L 272.683594 289.382812 L 273.480469 289.988281 L 275.0625 291.214844 C 275.5625 291.472656 276.050781 291.730469 276.527344 292.007812 L 276.886719 292.21875 L 277.15625 292.382812 C 274.015625 296.492188 284.242188 283.21875 270.128906 301.605469 L 270.085938 301.554688 L 269.339844 300.6875 L 267.859375 298.949219 C 265.96875 296.582031 263.691406 294.433594 261.5625 292.199219 C 252.605469 283.472656 242.296875 275.699219 232.269531 266.9375 L 202.902344 241.183594 C 193.121094 232.691406 183.417969 223.878906 173.6875 215.183594 L 159.097656 202.109375 C 154.253906 197.648438 149.476562 192.957031 144.921875 188.265625 C 135.765625 178.886719 126.984375 169.445312 117.527344 161.101562 C 115.21875 158.917969 112.742188 157.039062 110.308594 155.085938 C 107.917969 153.046875 105.335938 151.382812 102.789062 149.660156 L 100.875 148.367188 L 99.921875 147.714844 L 99.800781 147.636719 C 98.179688 149.65625 113.585938 129.820312 107.09375 138.242188 L 107.800781 138.949219 L 118.234375 149.339844 C 120.738281 151.859375 123.285156 154.324219 125.75 156.878906 L 133.074219 164.628906 C 137.957031 169.789062 142.851562 175.039062 147.695312 179.886719 C 157.199219 189.933594 167.601562 199.3125 177.941406 208.890625 C 183.128906 213.71875 188.414062 218.332031 193.527344 223.335938 L 208.828125 238.183594 C 218.605469 247.980469 229.175781 257.261719 239.527344 267.054688 C 242.09375 269.546875 244.699219 271.96875 247.234375 274.515625 C 249.742188 277.101562 252.292969 279.628906 254.761719 282.265625 C 257.167969 284.980469 259.617188 287.652344 261.988281 290.40625 L 265.390625 294.707031 L 267.089844 296.859375 L 267.941406 297.9375 L 268.367188 298.472656 L 268.582031 298.742188 L 268.632812 298.808594 C 270.453125 297.003906 253.066406 314.875 260.390625 307.28125 L 260.25 307.175781 C 248.082031 298.632812 237.894531 288.242188 227.953125 278.332031 C 222.984375 273.335938 218.019531 268.539062 212.929688 263.957031 C 210.335938 261.726562 207.734375 259.625 205.082031 257.410156 L 196.851562 250.675781 L 180.390625 237.191406 L 172.164062 230.449219 L 164.144531 223.511719 C 135.90625 199.296875 108.40625 174.5 79.953125 150.996094 L 74.65625 146.535156 L 74.164062 146.117188 L 74.121094 146.082031 C 77.191406 141.726562 67.1875 155.78125 80.996094 136.308594 L 81.09375 136.375 L 81.886719 136.914062 L 83.46875 137.992188 C 84.511719 138.722656 85.605469 139.421875 86.597656 140.1875 C 90.523438 143.289062 94.183594 146.574219 97.539062 149.960938 C 104.300781 156.703125 110.367188 163.675781 116.84375 169.578125 C 130.75 182.148438 143.910156 195.808594 155.972656 210.191406 L 155.976562 210.191406 C 159.355469 214.351562 162.816406 218.457031 166.121094 222.671875 C 169.402344 226.945312 172.527344 231.070312 175.78125 235.097656 C 179 239.136719 182.375 242.894531 185.878906 246.449219 C 187.6875 248.136719 189.449219 249.894531 191.371094 251.390625 L 192.78125 252.5625 L 193.128906 252.855469 C 190.003906 257.183594 200.386719 243.371094 186.164062 262.597656 L 185.953125 262.445312 L 185.125 261.828125 L 181.8125 259.367188 C 164.257812 246.089844 149.960938 230.007812 135.0625 215.398438 C 120.195312 200.972656 103.667969 188.175781 86.960938 175.101562 C 82.777344 171.773438 78.644531 168.628906 74.414062 165.152344 L 68.863281 160.4375 L 68.269531 159.929688 L 63.582031 155.980469 C 60.46875 153.484375 57.339844 151.164062 54.160156 149.332031 "></path><path style=" stroke:none;fill-rule:nonzero;fill:#fc1270;fill-opacity:1;" d="M 165.550781 84.304688 C 165.691406 84.472656 165.742188 84.527344 165.71875 84.949219 C 165.734375 85.695312 165.710938 86.289062 165.609375 87.175781 C 165.507812 88.03125 165.34375 89.023438 164.992188 89.984375 C 164.308594 91.796875 162.769531 93.894531 157.839844 92.914062 C 157.679688 92.875 156.980469 92.605469 156.710938 92.378906 L 155.683594 91.207031 L 155.171875 90.617188 L 155.113281 90.546875 C 153.363281 92.425781 170.316406 74.152344 163.144531 81.890625 L 163.148438 81.890625 L 163.15625 81.898438 L 163.171875 81.910156 L 163.207031 81.933594 L 163.332031 82.019531 L 163.59375 82.191406 L 165.664062 83.585938 L 169.808594 86.371094 L 178.027344 91.890625 C 180.875 93.804688 183.722656 95.730469 186.589844 97.457031 L 190.886719 100.128906 L 193.03125 101.472656 L 195.230469 102.644531 L 199.617188 104.996094 L 201.816406 106.175781 L 202.914062 106.765625 L 203.1875 106.914062 L 203.195312 106.917969 C 210.191406 99.535156 193.675781 116.980469 195.375 115.179688 L 195.363281 115.164062 L 195.34375 115.136719 L 195.304688 115.074219 L 195.226562 114.960938 L 194.917969 114.488281 L 192.476562 110.707031 L 189.484375 107.121094 C 185.964844 103.242188 181.96875 99.589844 177.609375 95.964844 C 173.332031 92.335938 168.773438 88.671875 164.390625 84.46875 L 162.75 82.859375 L 161.933594 82.054688 L 161.523438 81.652344 L 161.324219 81.449219 L 161.21875 81.347656 L 161.15625 81.285156 C 153.472656 88.671875 171.605469 71.207031 169.742188 73.011719 L 169.765625 73.03125 L 172.777344 75.804688 C 174.816406 77.636719 176.714844 79.554688 178.863281 81.320312 C 183.214844 84.808594 187.503906 88.332031 192.117188 91.710938 L 205.214844 101.605469 L 206.035156 102.226562 L 206.085938 102.265625 L 206.097656 102.273438 C 202.042969 105.453125 215.191406 95.175781 197.015625 109.398438 L 197 109.375 L 196.949219 109.285156 L 196.84375 109.097656 L 196.636719 108.71875 L 195.8125 107.214844 C 195.277344 106.210938 194.789062 105.1875 194.007812 104.238281 L 191.894531 101.328125 L 189.417969 98.503906 C 186.003906 94.742188 182.113281 91.171875 178.085938 87.28125 C 176.085938 85.414062 174.074219 83.269531 172.09375 81.199219 L 169.203125 77.792969 L 168.484375 76.941406 L 168.4375 76.886719 L 168.425781 76.871094 C 166.871094 78.839844 181.914062 59.703125 175.554688 67.808594 L 175.589844 67.828125 L 176.035156 68.054688 L 176.625 68.359375 C 177.386719 68.777344 178.238281 69.171875 178.914062 69.640625 C 182.726562 72.09375 185.53125 74.902344 188.160156 77.363281 C 189.457031 78.597656 190.714844 79.738281 191.9375 80.789062 L 193.21875 81.800781 L 193.601562 82.109375 L 193.652344 82.144531 C 176.4375 97.777344 188.878906 86.476562 185.035156 89.964844 L 185.027344 89.957031 L 185.019531 89.941406 L 185 89.914062 L 184.929688 89.808594 L 184.78125 89.589844 L 182.457031 86.128906 C 181.671875 84.96875 180.660156 83.765625 179.777344 82.585938 C 179.777344 82.585938 178.941406 81.332031 177.578125 79.273438 C 176.878906 78.191406 176.03125 76.984375 175.121094 75.476562 C 174.246094 73.917969 173.277344 72.1875 172.253906 70.359375 C 174.332031 68.195312 176.46875 65.972656 178.714844 63.632812 C 179.984375 64.59375 181.421875 65.566406 182.601562 66.652344 C 183.753906 67.746094 184.96875 68.878906 185.9375 69.949219 C 186.929688 70.980469 187.921875 72.015625 188.898438 73.03125 L 189.253906 73.398438 L 189.429688 73.585938 L 189.519531 73.675781 L 189.539062 73.699219 L 189.558594 73.71875 C 190.625 72.804688 180.269531 81.6875 184.652344 77.925781 L 184.652344 77.921875 L 184.628906 77.859375 L 184.25 76.914062 C 184.003906 76.28125 183.761719 75.660156 183.523438 75.050781 C 181.351562 70.148438 179.976562 66.507812 179.984375 64.269531 C 179.800781 62.101562 180.285156 61.472656 181 61.839844 C 181.785156 62.195312 182.777344 63.5 184.101562 65.265625 C 184.863281 66.152344 185.613281 67.144531 186.515625 68.28125 C 187.460938 69.46875 188.421875 70.601562 189.457031 72.109375 C 189.390625 71.925781 189.667969 72.277344 190.199219 73.039062 C 190.460938 73.429688 190.789062 73.910156 191.171875 74.476562 L 191.210938 74.53125 C 192.519531 73.414062 179.84375 84.292969 185.207031 79.683594 L 185.183594 79.671875 L 185.160156 79.652344 L 185.050781 79.578125 L 184.820312 79.425781 C 184.667969 79.324219 184.507812 79.214844 184.347656 79.105469 C 184.019531 78.882812 183.675781 78.648438 183.316406 78.402344 C 180.398438 76.429688 177.121094 73.679688 174.035156 72.339844 L 180.765625 65.335938 C 181.910156 66.808594 183.046875 68.265625 184.09375 69.613281 C 187.53125 73.53125 190.195312 76.570312 190.195312 76.570312 C 191.09375 77.710938 191.996094 78.882812 192.863281 80.242188 L 194.175781 82.199219 L 194.824219 83.179688 L 195.152344 83.667969 L 195.234375 83.792969 L 195.292969 83.886719 L 195.304688 83.902344 L 195.308594 83.902344 C 191.4375 87.417969 203.976562 76.039062 186.628906 91.789062 L 186.621094 91.78125 L 186.375 91.59375 L 185.296875 90.738281 C 184.515625 90.144531 183.792969 89.542969 183.136719 88.941406 C 181.742188 87.730469 180.519531 86.542969 179.296875 85.402344 C 176.894531 83.125 174.667969 81.046875 172.539062 79.726562 C 172.097656 79.410156 171.683594 79.273438 171.265625 79.019531 L 170.71875 78.71875 L 170.699219 78.707031 C 164.285156 86.859375 179.425781 67.59375 177.871094 69.582031 L 177.882812 69.59375 L 177.917969 69.636719 L 178.519531 70.339844 L 180.914062 73.164062 C 182.703125 75.019531 184.410156 76.859375 186.390625 78.714844 C 190.191406 82.394531 194.351562 86.1875 198.261719 90.488281 L 201.175781 93.8125 L 203.871094 97.511719 C 204.8125 98.691406 205.550781 100.105469 206.296875 101.503906 L 207.417969 103.59375 L 207.699219 104.121094 L 207.835938 104.378906 L 207.90625 104.511719 L 207.921875 104.546875 C 189.65625 118.859375 202.851562 108.507812 198.773438 111.703125 L 198.757812 111.691406 L 198.707031 111.652344 L 197.902344 111.042969 L 184.917969 101.238281 C 180.300781 97.859375 175.738281 94.128906 171.171875 90.457031 C 168.902344 88.59375 166.753906 86.453125 164.539062 84.457031 L 161.246094 81.414062 L 161.222656 81.386719 C 159.339844 83.191406 177.550781 65.664062 169.847656 73.089844 L 169.859375 73.097656 L 169.90625 73.144531 L 170.171875 73.40625 L 170.527344 73.753906 L 171.242188 74.449219 L 172.664062 75.84375 C 180.386719 83.308594 190.136719 89.910156 198.425781 99.179688 L 202.070312 103.570312 L 205.265625 108.496094 L 205.660156 109.117188 L 205.761719 109.273438 L 205.808594 109.347656 L 205.84375 109.40625 C 207.554688 107.613281 190.984375 125.085938 197.992188 117.6875 L 197.984375 117.679688 L 197.6875 117.523438 L 196.5 116.886719 L 194.121094 115.617188 L 189.367188 113.070312 L 186.996094 111.792969 L 184.738281 110.390625 L 180.226562 107.585938 C 177.171875 105.742188 174.289062 103.792969 171.394531 101.847656 L 163.136719 96.308594 L 159.046875 93.5625 L 157.003906 92.183594 L 156.746094 92.015625 L 156.617188 91.925781 L 156.585938 91.90625 L 156.570312 91.894531 L 156.5625 91.890625 L 156.558594 91.886719 C 149.378906 99.621094 166.332031 81.34375 164.585938 83.230469 L 164.628906 83.273438 L 164.9375 83.613281 L 165.550781 84.304688 "></path><path style=" stroke:none;fill-rule:nonzero;fill:#fc1270;fill-opacity:1;" d="M 52.703125 152.339844 C 52.496094 152.132812 52.421875 152.058594 52.351562 151.585938 C 51.636719 148.523438 51.953125 142.757812 60.035156 143.445312 C 60.1875 143.457031 60.8125 143.59375 61.042969 143.753906 L 74.492188 156.890625 L 74.914062 157.300781 L 76.570312 158.863281 L 86.71875 168.160156 C 93.371094 174.511719 100.515625 180.179688 107.503906 186.085938 C 121.992188 197.386719 137.074219 208.652344 150.996094 221.808594 C 157.488281 228.621094 164.183594 235.542969 170.292969 242.183594 L 174.96875 247.210938 L 177.304688 249.722656 C 178.023438 250.429688 178.699219 251.035156 179.578125 251.800781 C 181.265625 253.28125 183.175781 254.871094 185.085938 256.832031 C 186.042969 257.800781 186.996094 258.925781 187.898438 260.152344 L 188.558594 261.144531 L 188.878906 261.644531 L 189.042969 261.894531 L 189.121094 262.023438 C 173.597656 278.738281 184.757812 266.621094 181.265625 270.335938 L 179.554688 269.371094 C 170.238281 264.359375 163.214844 257.019531 156.917969 250.042969 C 153.738281 246.519531 150.761719 243.023438 147.703125 239.746094 C 144.664062 236.464844 141.492188 233.453125 138.085938 230.382812 L 133.84375 226.523438 L 129.417969 222.804688 C 126.503906 220.316406 123.464844 217.859375 120.425781 215.398438 L 111.292969 207.917969 C 108.152344 205.339844 105.433594 203.078125 102.300781 200.703125 C 96.203125 195.980469 89.679688 191.339844 83.578125 185.597656 C 82.066406 184.136719 80.53125 182.722656 79.121094 181.078125 L 78.046875 179.886719 L 77.507812 179.289062 L 77.238281 178.988281 L 77.171875 178.914062 L 77.140625 178.878906 C 80.890625 175.128906 68.699219 187.21875 85.539062 170.460938 L 85.679688 170.589844 L 87.933594 172.617188 C 90.882812 175.363281 94.070312 177.9375 96.820312 180.832031 C 108.296875 192.089844 118.421875 204.226562 128.757812 215.820312 L 136.574219 224.394531 L 144.605469 232.628906 C 147.332031 235.3125 150.207031 237.820312 153 240.425781 C 154.433594 241.78125 155.75 242.867188 157.183594 244.035156 L 161.757812 247.558594 C 164.710938 249.890625 167.8125 252.207031 170.746094 255.328125 C 171.496094 256.019531 172.175781 256.957031 172.878906 257.792969 C 173.585938 258.632812 174.277344 259.496094 174.855469 260.554688 L 175.757812 262.070312 L 176.203125 262.832031 L 176.3125 263.019531 C 172.765625 266.589844 184.285156 255.101562 168.371094 271.035156 L 168.328125 271.007812 L 168.246094 270.964844 L 167.914062 270.777344 L 165.253906 269.28125 C 158.152344 265.273438 152.222656 260.164062 146.8125 255.039062 C 141.347656 249.945312 136.25 244.664062 131.03125 240.023438 C 128.355469 237.644531 125.835938 235.789062 122.835938 233.042969 L 118.496094 229.199219 C 117.003906 227.894531 115.832031 226.746094 114.484375 225.507812 L 112.53125 223.683594 L 111.550781 222.773438 L 111.0625 222.316406 L 110.816406 222.085938 L 110.695312 221.976562 L 110.632812 221.917969 L 110.601562 221.886719 C 102.25 228.117188 121.945312 213.367188 119.925781 214.902344 L 122.328125 219.335938 C 123.742188 222.363281 125.957031 225.058594 127.816406 227.90625 C 128.75 229.332031 129.980469 230.613281 131.042969 231.980469 C 132.171875 233.3125 133.191406 234.695312 134.40625 235.992188 C 136.84375 238.578125 139.128906 241.21875 141.726562 243.757812 C 146.722656 248.882812 152.054688 253.972656 157.230469 259.335938 C 158.546875 260.632812 159.800781 262.082031 161.078125 263.464844 L 162.988281 265.5625 L 163.941406 266.613281 L 164.417969 267.136719 L 164.476562 267.203125 C 172.363281 260.058594 153.769531 276.976562 155.667969 275.21875 L 155.636719 275.191406 L 155.515625 275.078125 L 155.28125 274.851562 L 147.628906 267.601562 C 141.4375 262.058594 134.839844 256.746094 128.222656 251.027344 C 124.871094 248.355469 121.757812 245.019531 118.546875 241.960938 L 116.15625 239.625 L 115.5625 239.042969 L 115.261719 238.75 L 115.1875 238.675781 C 119.574219 235.816406 105.339844 245.054688 125.019531 232.257812 L 125.027344 232.277344 L 125.046875 232.316406 L 125.132812 232.476562 L 125.78125 233.753906 C 126.675781 235.453125 127.410156 237.191406 128.550781 238.839844 C 132.652344 245.554688 138.011719 251.886719 143.589844 258.199219 L 152.128906 267.78125 L 154.269531 270.261719 L 155.339844 271.5 L 155.875 272.121094 L 155.941406 272.199219 C 152.0625 275.816406 164.652344 264.136719 147.246094 280.308594 L 147.226562 280.289062 L 147.191406 280.257812 L 147.046875 280.121094 L 146.753906 279.851562 L 142.09375 275.527344 L 133.242188 267.3125 L 128.816406 263.203125 L 124.375 258.914062 L 115.484375 250.324219 L 111.046875 246.027344 L 110.488281 245.492188 L 110.210938 245.222656 L 110.074219 245.089844 L 110.039062 245.054688 C 128.296875 229.894531 115.105469 240.863281 119.1875 237.484375 L 119.203125 237.503906 L 119.257812 237.578125 L 120.164062 238.742188 L 121.976562 241.078125 C 126.664062 247.363281 132.035156 253.40625 137.140625 259.882812 C 139.714844 263.117188 142.351562 266.253906 144.71875 269.828125 L 148.359375 275.039062 L 149.265625 276.34375 C 150.972656 274.523438 134.488281 292.304688 141.453125 284.769531 L 141.429688 284.757812 L 141.382812 284.730469 L 141.292969 284.679688 L 141.113281 284.574219 L 140.75 284.363281 L 140.027344 283.949219 L 137.140625 282.269531 C 131.394531 278.636719 126.324219 274.421875 121.550781 270.03125 C 119.148438 267.847656 116.875 265.574219 114.621094 263.296875 L 111.300781 259.851562 L 109.675781 258.113281 L 108.863281 257.246094 L 108.453125 256.8125 L 108.253906 256.597656 L 108.226562 256.570312 C 127.414062 242.863281 113.550781 252.78125 117.835938 249.722656 L 117.84375 249.738281 L 117.945312 249.910156 C 123.386719 259.949219 132.046875 268.828125 139.703125 279.464844 L 141.078125 281.402344 L 141.421875 281.890625 L 141.507812 282.011719 L 141.527344 282.042969 L 141.539062 282.058594 C 138.042969 285.855469 149.382812 273.585938 133.703125 290.570312 L 133.636719 290.527344 L 133.378906 290.367188 L 132.355469 289.714844 L 128.25 287.101562 C 126.84375 286.246094 125.589844 285.308594 124.363281 284.363281 L 120.628906 281.542969 L 113.539062 275.9375 L 108.347656 272.046875 L 107.484375 271.398438 L 107.457031 271.375 C 111.355469 268.035156 98.707031 278.84375 116.195312 263.882812 L 116.203125 263.898438 L 116.234375 263.949219 L 116.644531 264.6875 C 119.039062 269.234375 122.640625 273.636719 126.46875 278.242188 C 128.394531 280.558594 130.367188 282.941406 132.296875 285.496094 L 133.722656 287.460938 L 134.082031 287.949219 L 134.257812 288.195312 L 134.347656 288.316406 L 134.371094 288.347656 L 134.378906 288.367188 C 142.3125 281.414062 123.585938 297.855469 125.507812 296.15625 L 125.457031 296.113281 L 124.652344 295.453125 L 121.429688 292.800781 C 119.191406 291.09375 116.960938 289.484375 114.539062 287.746094 L 110.933594 285.167969 L 107.257812 282.347656 L 106.335938 281.640625 L 105.878906 281.285156 L 105.820312 281.242188 L 105.792969 281.21875 C 110.097656 278.804688 96.136719 286.609375 115.441406 275.804688 L 115.515625 276.09375 L 115.839844 277.578125 C 115.953125 278.082031 116.21875 278.628906 116.390625 279.15625 C 116.566406 279.679688 116.773438 280.222656 117.074219 280.777344 C 118.023438 282.960938 119.535156 285.246094 121.011719 287.539062 L 125.996094 294.769531 L 126.316406 295.246094 L 126.335938 295.273438 L 126.347656 295.289062 C 122.292969 298.65625 135.4375 287.769531 117.257812 302.839844 L 117.210938 302.792969 L 117.109375 302.695312 L 116.917969 302.503906 L 116.140625 301.734375 L 114.578125 300.1875 L 111.460938 297.105469 L 110.195312 295.847656 L 109.675781 295.390625 L 106.3125 292.402344 L 104.636719 290.902344 L 103.796875 290.148438 L 103.691406 290.058594 L 103.640625 290.007812 L 103.625 289.996094 C 101.5625 291.261719 121.5625 278.957031 113.097656 284.167969 L 113.097656 284.171875 L 113.101562 284.175781 L 113.105469 284.199219 L 113.160156 284.382812 L 113.261719 284.746094 C 113.261719 284.746094 113.273438 284.800781 113.375 285.269531 C 113.449219 285.597656 113.640625 286.667969 114.542969 288.804688 C 114.898438 289.667969 115.378906 290.722656 116.019531 292.121094 C 116.265625 292.675781 116.515625 293.253906 116.777344 293.863281 C 117.03125 294.53125 117.300781 295.226562 117.585938 295.964844 C 117.75 296.527344 117.917969 297.097656 118.089844 297.683594 L 118.21875 298.128906 L 118.242188 298.210938 L 118.242188 298.21875 L 118.246094 298.222656 L 118.246094 298.226562 C 124.589844 293.394531 109.601562 304.808594 111.144531 303.632812 L 111.132812 303.625 L 111.0625 303.558594 L 110.917969 303.429688 L 110.324219 302.902344 C 108.457031 301.199219 106.460938 299.378906 104.476562 297.5625 L 103.746094 296.882812 L 103.378906 296.539062 L 103.289062 296.453125 L 103.242188 296.410156 L 103.222656 296.390625 C 114.976562 290.539062 106.480469 294.769531 109.105469 293.464844 L 109.101562 293.472656 L 109.101562 293.488281 L 109.085938 293.683594 L 108.953125 295.28125 C 108.964844 295.773438 108.976562 296.257812 108.988281 296.738281 C 108.96875 297.003906 109.054688 297.191406 109.085938 297.417969 L 109.144531 297.746094 C 109.148438 297.8125 109.246094 298.21875 109.332031 298.355469 C 109.386719 298.472656 109.4375 298.589844 109.484375 298.695312 L 109.125 299.082031 C 109.027344 299.207031 108.816406 299.359375 108.941406 299.421875 L 109.246094 299.894531 C 109.441406 300.199219 109.632812 300.503906 109.820312 300.800781 C 110.003906 301.089844 110.179688 301.375 110.355469 301.652344 L 110.480469 301.855469 L 110.496094 301.878906 C 112.746094 302.078125 107.429688 301.605469 107.976562 301.65625 L 107.960938 301.636719 L 107.929688 301.601562 L 107.867188 301.539062 C 107.761719 301.441406 107.761719 301.402344 107.664062 301.4375 C 107.328125 301.621094 106.984375 302.035156 106.828125 302.359375 L 106.582031 302.871094 C 106.601562 303.09375 108.230469 303.9375 108.292969 304.199219 C 108.175781 304.71875 107.355469 304.714844 107.480469 305.359375 C 107.238281 305.605469 107.140625 305.832031 106.464844 306.230469 C 106.316406 306.367188 105.527344 306.582031 105.023438 306.464844 C 104.578125 306.367188 104.199219 306.121094 103.902344 305.839844 C 104.738281 305.832031 105.570312 305.820312 106.394531 305.808594 C 105.636719 306.386719 104.964844 306.640625 104.101562 306.699219 C 103.699219 306.726562 103.160156 306.640625 102.699219 306.382812 C 102.21875 306.101562 101.886719 305.613281 101.8125 305.257812 C 101.621094 304.511719 101.789062 304.078125 101.910156 303.730469 C 102.042969 303.382812 102.203125 303.128906 102.355469 302.921875 C 102.988281 302.113281 103.464844 301.992188 103.765625 302.226562 C 104.078125 302.46875 104.183594 303.179688 104.414062 303.863281 C 104.449219 304.03125 104.601562 304.160156 104.601562 304.160156 C 103.851562 304.238281 103.507812 304.550781 103.582031 304.5 C 103.675781 304.445312 103.710938 303.683594 103.488281 303.15625 L 103.363281 302.835938 C 103.363281 302.835938 103.316406 302.765625 103.382812 302.847656 C 103.441406 302.925781 103.554688 303.0625 103.667969 303.15625 L 105.570312 304.128906 C 105.457031 304.136719 105.359375 304.394531 105.378906 304.394531 C 105.371094 304.328125 105.371094 304.359375 105.230469 304.078125 C 105.167969 303.984375 105.082031 303.90625 104.992188 303.851562 C 104.859375 303.699219 104.703125 303.542969 104.546875 303.410156 C 104.382812 303.277344 104.210938 303.15625 104.035156 303.050781 C 103.957031 303.015625 103.84375 302.9375 103.6875 302.820312 C 103.472656 302.667969 103.617188 302.761719 103.570312 302.726562 L 103.660156 302.179688 C 103.722656 301.824219 103.699219 301.402344 103.886719 301.207031 C 104.144531 301.378906 103.769531 301.117188 103.621094 300.933594 C 103.445312 300.75 103.226562 300.597656 103.109375 300.414062 C 103.042969 300.300781 103.027344 300.332031 102.925781 300.1875 C 102.980469 300.410156 102.757812 300.011719 102.355469 299.109375 C 102.132812 298.652344 102.035156 298.097656 101.839844 297.417969 C 101.648438 296.738281 101.457031 295.953125 101.386719 295.148438 C 101.332031 294.730469 101.28125 294.296875 101.222656 293.84375 L 101.203125 293.671875 L 101.195312 293.585938 L 101.191406 293.574219 C 95.039062 296.636719 109.578125 289.394531 108.078125 290.144531 L 108.085938 290.148438 L 108.128906 290.171875 L 108.367188 290.324219 L 108.855469 290.632812 C 109.519531 291.050781 110.222656 291.5 110.953125 291.964844 C 112.410156 292.898438 113.984375 293.910156 115.578125 294.933594 L 116.164062 295.3125 L 116.308594 295.40625 L 116.382812 295.457031 L 116.421875 295.480469 C 113.101562 298.007812 123.84375 289.824219 108.984375 301.144531 L 108.980469 301.144531 L 108.976562 301.132812 L 108.96875 301.117188 L 108.847656 300.878906 L 108.390625 299.921875 C 107.90625 299.054688 107.375 298.152344 106.761719 297.210938 C 106.046875 296.082031 105.359375 294.992188 104.722656 293.984375 C 104.191406 293.132812 103.691406 292.15625 103.25 291.339844 C 102.835938 290.410156 102.449219 289.601562 102.167969 288.832031 C 101.863281 287.84375 101.617188 287.050781 101.445312 286.503906 L 101.441406 286.480469 L 101.433594 286.464844 L 101.433594 286.460938 L 101.429688 286.457031 L 101.429688 286.453125 C 105.664062 283.851562 91.953125 292.285156 110.921875 280.613281 L 110.953125 280.636719 L 111.011719 280.683594 L 111.125 280.769531 C 111.191406 280.824219 111.246094 280.867188 111.289062 280.902344 C 111.378906 280.972656 111.429688 281.011719 111.429688 281.011719 L 117.917969 286.769531 L 118.511719 287.300781 L 119.777344 288.554688 L 122.898438 291.640625 L 124.457031 293.183594 L 125.234375 293.957031 L 125.429688 294.144531 L 125.527344 294.242188 L 125.578125 294.289062 C 107.261719 309.472656 120.492188 298.492188 116.402344 301.878906 L 116.394531 301.863281 L 116.375 301.835938 L 116.082031 301.402344 L 111.109375 294.1875 C 109.421875 291.570312 107.671875 288.960938 106.25 285.789062 C 105.859375 285.046875 105.53125 284.230469 105.230469 283.367188 C 104.9375 282.507812 104.582031 281.714844 104.355469 280.792969 L 103.738281 277.992188 L 103.632812 277.464844 L 103.625 277.445312 C 123.078125 266.558594 109.027344 274.433594 113.371094 272.007812 L 113.394531 272.027344 L 113.449219 272.066406 L 113.859375 272.378906 L 114.679688 273.007812 L 117.957031 275.527344 L 121.488281 278.050781 C 123.820312 279.722656 126.335938 281.535156 128.746094 283.378906 L 132.488281 286.457031 L 133.417969 287.230469 L 133.480469 287.277344 C 135.429688 285.578125 116.566406 302.136719 124.542969 295.121094 L 124.535156 295.105469 L 124.515625 295.078125 L 124.441406 294.976562 L 124.289062 294.765625 L 123.980469 294.34375 L 122.757812 292.664062 C 121.066406 290.421875 119.214844 288.167969 117.292969 285.863281 C 113.472656 281.234375 109.316406 276.324219 106.070312 270.214844 L 105.761719 269.652344 L 105.609375 269.371094 L 105.535156 269.226562 L 105.492188 269.15625 L 105.484375 269.140625 C 123.09375 254.074219 110.378906 264.96875 114.308594 261.609375 L 115.277344 262.335938 L 117.15625 263.742188 L 120.90625 266.558594 L 127.964844 272.132812 L 131.421875 274.742188 C 132.570312 275.636719 133.726562 276.496094 134.898438 277.1875 L 138.394531 279.425781 L 139.265625 279.988281 L 139.480469 280.125 L 139.535156 280.164062 C 123.765625 297.273438 135.160156 284.898438 131.636719 288.714844 L 131.628906 288.703125 L 131.609375 288.671875 L 131.53125 288.566406 L 131.222656 288.132812 L 129.992188 286.398438 L 129.992188 286.394531 C 123.140625 276.738281 114.054688 267.59375 107.457031 255.597656 L 107.375 255.460938 L 107.335938 255.394531 L 107.328125 255.375 C 111.636719 252.296875 97.664062 262.25 116.988281 248.460938 L 117.011719 248.492188 L 117.207031 248.699219 L 118.390625 249.964844 L 119.964844 251.644531 L 123.144531 254.941406 C 125.285156 257.097656 127.425781 259.25 129.644531 261.261719 C 134.054688 265.324219 138.644531 269.105469 143.464844 272.144531 L 145.832031 273.519531 L 146.421875 273.863281 L 146.71875 274.035156 L 146.867188 274.125 L 146.9375 274.167969 L 146.976562 274.1875 L 146.992188 274.199219 C 154.015625 266.625 137.453125 284.53125 139.148438 282.679688 L 138.316406 281.492188 L 134.988281 276.738281 C 132.890625 273.535156 130.304688 270.457031 127.828125 267.351562 C 122.902344 261.09375 117.480469 255.003906 112.464844 248.292969 L 110.554688 245.820312 L 109.597656 244.585938 L 109.519531 244.488281 C 113.617188 241.078125 100.335938 252.097656 118.699219 236.839844 L 118.730469 236.871094 L 118.867188 237 L 119.136719 237.261719 L 119.671875 237.777344 L 123.976562 241.933594 L 132.578125 250.242188 L 136.882812 254.402344 L 150.34375 266.902344 L 155.070312 271.285156 L 155.367188 271.5625 L 155.515625 271.699219 L 155.550781 271.734375 L 155.570312 271.75 C 138.054688 288.007812 150.707031 276.246094 146.789062 279.867188 L 146.726562 279.796875 L 146.21875 279.203125 L 143.15625 275.65625 L 134.652344 266.113281 C 128.945312 259.636719 123.167969 252.90625 118.347656 245.035156 C 117.058594 243.160156 116.074219 240.972656 115 238.878906 L 114.207031 237.300781 L 114.109375 237.101562 L 114.082031 237.054688 L 114.074219 237.027344 C 133.847656 224.15625 119.566406 233.46875 123.984375 230.601562 L 124.050781 230.667969 L 124.324219 230.933594 L 124.875 231.46875 L 127.070312 233.597656 C 130.054688 236.414062 132.746094 239.375 136.078125 242.03125 C 142.378906 247.480469 149.09375 252.890625 155.621094 258.730469 L 163.886719 266.570312 L 164.144531 266.816406 L 164.273438 266.941406 L 164.308594 266.972656 C 166.253906 265.242188 147.515625 282.191406 155.429688 275 L 155.375 274.9375 L 154.929688 274.449219 L 154.035156 273.472656 L 152.253906 271.515625 C 151.054688 270.21875 149.921875 268.890625 148.628906 267.625 C 143.652344 262.464844 138.402344 257.453125 133.191406 252.113281 C 130.554688 249.539062 128.039062 246.660156 125.472656 243.921875 C 124.1875 242.542969 123.019531 240.988281 121.789062 239.527344 C 120.601562 238.015625 119.296875 236.636719 118.210938 235.007812 C 116.058594 231.753906 113.617188 228.730469 111.882812 225.136719 L 109.082031 219.90625 C 107.027344 221.40625 126.84375 206.628906 118.472656 212.902344 L 118.503906 212.929688 L 118.566406 212.992188 L 118.699219 213.109375 L 118.957031 213.351562 L 119.46875 213.828125 L 122.550781 216.699219 C 123.898438 217.933594 125.34375 219.339844 126.613281 220.433594 L 130.476562 223.859375 C 132.835938 226.09375 136.195312 228.613281 138.976562 231.101562 C 144.679688 236.1875 149.738281 241.441406 154.976562 246.3125 C 160.144531 251.234375 165.457031 255.695312 171.101562 258.863281 L 173.210938 260.070312 L 173.46875 260.21875 L 173.535156 260.257812 L 173.570312 260.277344 C 157.632812 276.304688 169.140625 264.703125 165.582031 268.273438 L 165.515625 268.171875 L 165.253906 267.757812 L 164.75 266.925781 C 164.476562 266.355469 164.015625 265.796875 163.539062 265.242188 C 163.058594 264.6875 162.699219 264.109375 162.089844 263.566406 C 160.027344 261.332031 157.265625 259.222656 154.480469 257.035156 C 141.429688 247.183594 130.371094 235.585938 119.835938 223.777344 C 109.34375 211.992188 99.359375 200.050781 88.453125 189.367188 C 87.128906 187.976562 85.738281 186.6875 84.316406 185.441406 L 80.097656 181.640625 L 77.988281 179.738281 L 77.855469 179.621094 C 94.726562 162.792969 82.546875 174.972656 86.320312 171.226562 L 86.351562 171.253906 L 86.40625 171.316406 L 86.628906 171.5625 L 87.074219 172.050781 L 87.964844 173.039062 C 89.097656 174.378906 90.453125 175.617188 91.753906 176.878906 C 97.058594 181.890625 103.3125 186.386719 109.597656 191.234375 C 112.710938 193.585938 116.019531 196.328125 118.929688 198.71875 L 127.96875 206.128906 C 131.019531 208.59375 134.066406 211.058594 137.109375 213.652344 L 141.679688 217.492188 L 146.125 221.535156 C 160.925781 234.128906 170.804688 251.199219 185.171875 258.8125 L 186.484375 259.578125 C 183.027344 263.320312 194.339844 251.269531 178.753906 267.980469 L 178.714844 267.925781 L 178.636719 267.8125 L 178.484375 267.585938 L 178.183594 267.125 C 177.707031 266.492188 177.171875 265.832031 176.492188 265.152344 C 175.167969 263.785156 173.519531 262.378906 171.714844 260.808594 C 170.839844 260.050781 169.789062 259.109375 168.851562 258.183594 L 161.636719 250.4375 C 155.171875 243.410156 148.945312 237 142.640625 230.363281 C 129.546875 217.996094 114.859375 206.972656 100.070312 195.457031 C 92.871094 189.382812 85.464844 183.492188 78.675781 177.019531 L 68.296875 167.5 L 66.195312 165.507812 L 52.703125 152.339844 "></path></g></svg>