<svg xmlns="http://www.w3.org/2000/svg" viewBox="0 0 391.35 236.71"><defs><style>.b437d317-f494-4965-819a-d2f074b6337b{fill:#eae6e5;}</style></defs><g id="be0868b5-75dc-4dec-b817-bb4b8ba472a6" data-name="Ebene 2"><g id="aa46f922-b42b-4e6e-aed8-31f6ac1352e4" data-name="Ebene 1"><g id="e9f73027-1bce-4ee2-9198-6a4d05a21342" data-name="Bildmaterial 3"><g id="aa501d1e-87dc-4f30-ba1d-81352ff97805" data-name="Gruppe 11"><path id="b361d29a-abbe-476b-8413-cfffc9ab7f52" data-name="Pfad 5" class="b437d317-f494-4965-819a-d2f074b6337b" d="M388.65,34.11c-2.27,1.55-3.45,4.2-5.78,5.6s-6,2.32-8.58,4.47-4.57,2.6-7.11,3.91-4.08,3.43-6.19,5.42a4.11,4.11,0,0,1-3.88,1.32,28.82,28.82,0,0,1-3.31-1.6,90.68,90.68,0,0,0-9.87-3.3c-5.51-1.6-11.41-4.22-16.95-4.13A15.62,15.62,0,0,0,315.3,51c-3.66,4.1-4.91,9.64-5.84,15.57s-.74,6.86-2.41,9.53l-4.19,6.67c-3.3,5.49-11,2.54-15.83-.34a86.15,86.15,0,0,0-8.37-4.21c-3.25-1.45-6.33-3.31-9.64-4.9a184.65,184.65,0,0,0-17.91-8,29.89,29.89,0,0,0-11.07-2l-.22-.59A18.44,18.44,0,0,0,238.16,58a31,31,0,0,0,.34-5.7,45.42,45.42,0,0,0-4-16A78,78,0,0,0,225,18.45,47.18,47.18,0,0,0,211.63,6.88c-5-3-9.87-3.29-15-4.71a73.37,73.37,0,0,0-8-2,36.08,36.08,0,0,0-8.87.2A89.77,89.77,0,0,0,161.54,3c-5.85,1.9-10.82,5.67-16.55,7.87a36.63,36.63,0,0,0-7.66,3.78c-2.66,1.87-5.1,4.32-7.7,6.33a75.46,75.46,0,0,0-13.75,12.54,51.15,51.15,0,0,0-5.35,7.62,87.45,87.45,0,0,1-4.78,9.09,38.86,38.86,0,0,0-4.7,7.54L96.78,68.19l-3.41,9.57a28.28,28.28,0,0,0-1.86,9.66c.1,3.34.2,6.68.1,9.92a102.78,102.78,0,0,0-.18,10.53l0,1-5.6-.55c-6-.58-11.93-1.16-17.76-.1s-9.69,4.22-13.64,8.44-6.1,5.21-6.23,10.15A41.43,41.43,0,0,0,50.82,141a57.6,57.6,0,0,0,4,9.45,49.46,49.46,0,0,0-5,2.27c-5.33,2.38-10.15,6.09-15.59,8.18a34.54,34.54,0,0,0-7.46,3.87,36.91,36.91,0,0,1-8.74,4c-2.8,1.07-5.53,2.29-8.24,3.16s-5.71.5-8.47,1.23-.24,2.45.85,2.2,5.76-.36,8.47-1.23,6-2.46,9-3.44a37.57,37.57,0,0,0,7.86-3.69,32.38,32.38,0,0,1,4.22-2.64l4.71-1.8a51,51,0,0,0,7.34-4.17,87.49,87.49,0,0,1,8.49-4.27l3.68-1.41a55.43,55.43,0,0,0,3.32,5.13c8.07,10.91,19,18.2,29.55,25.11a76.66,76.66,0,0,0,8.06,5.18,69.7,69.7,0,0,0,8.42,3c5.62,1.89,11.1,5.19,16.85,6.53s10.78,1.26,14.4-2.49a15.88,15.88,0,0,0,3.63-6.8,77,77,0,0,1,3.51-9.78,60,60,0,0,0,5-15.44,31.56,31.56,0,0,0,6.5-.64c9.63-2.18,16.37-11,20.42-20.66l3.29,1.1,1,.3c-2.59,4.71-3.93,10.45-6,15.63a68.89,68.89,0,0,0-3.92,12.65l-1.2-.05c-5.38,0-9.27,3.56-13.46,6.69s-7.88,8.93-10.79,14.09a94.62,94.62,0,0,0-7.83,17.86c-1.71,5.21-4.76,11.78-1.89,17.94a14.49,14.49,0,0,0,12.14,8.33A33.46,33.46,0,0,0,162,234.88,41.87,41.87,0,0,0,175.07,226a54.37,54.37,0,0,0,10.9-13.8l1-1.74c9.28,5.71,19.29,9.8,29.11,10.76a19.13,19.13,0,0,0,7.46-.33,67.56,67.56,0,0,0,8-3.4c4.45-2,7.48-5.57,10-9.93a20.29,20.29,0,0,0,4.24-2.13,52.59,52.59,0,0,0,12.37-12.18l5.43-7a34.17,34.17,0,0,0,4.5-8.48c2.39-5.65,5.54-11.07,7.47-17,4.16-12.9,1.23-27.13-1.15-41.24a46.8,46.8,0,0,0-7.94-18A38.43,38.43,0,0,0,254.86,90a108,108,0,0,0-13.34-7,39.46,39.46,0,0,0,.45-9c-.12-1.64-.54-3.17-.81-4.75l-.43-2.88h.85c5.89-.06,11.64,2.63,17.34,5.16s12.5,6.18,18.71,9.19c2.91,1.41,5.7,2.54,8.52,4.16a23.53,23.53,0,0,0,7.79,3.59c4.73.88,9,.09,11.33-4.35s2.66-4.06,3.86-6.21a23.15,23.15,0,0,0,2.22-8.28c1-6.62,2.15-13.31,6.8-17.46s9.54-4.17,14.78-2.8l8.8,2.69,9.15,2.74c2.33.79,5.06,2.61,7.51,2.85s3.73-1.26,5.16-2.82A19.93,19.93,0,0,1,370.26,50a23,23,0,0,0,6.17-3.72c2.45-2,5.53-2.29,8.19-4.16s3.45-4.19,5.78-5.59-.25-2.43-1.38-1.84M238.39,64.29,237,64.5l.56-2.92a14.26,14.26,0,0,1,.56,2.32m-8,87.43a25.87,25.87,0,0,1,6.14,6.76,47.9,47.9,0,0,1,4.16,10.39c1,3.34.9,6.74,2.14,10A32.77,32.77,0,0,1,240,205.1a56,56,0,0,1-8.59,1.78,34.23,34.23,0,0,1-9.26.52,31.81,31.81,0,0,1-17.74-7.54,92.17,92.17,0,0,1-7.36-7.3,34.37,34.37,0,0,0,2.55-4.35c1.51-3.11,3.12-5.93,4.63-9A56.8,56.8,0,0,0,209.36,161a59.33,59.33,0,0,0-.18-16.3l2.45.24a34.55,34.55,0,0,0,10.48,2.22l1.2,0A22.24,22.24,0,0,1,230,151m-55.74-12-1.58-.58c-5.21-1.71-10.89-1.55-15.78-5.07a30.64,30.64,0,0,1-4.48-4.19c5.18,2.06,10.45,3.92,15.66,5.63a67,67,0,0,0,7.12,1.83l-.31,1-.49,1.37M146.72,160.9a21.73,21.73,0,0,1-6.49-.2c-3.18-.81-5.93-3.13-8.95-4.84s-10.76-4.31-15.62-8.18a52.77,52.77,0,0,1-4.42-4l.47-.52c1.85-2.23,3.49-4.54,5.39-6.62a17.86,17.86,0,0,0,3.5-5.4,28.16,28.16,0,0,0,1.93-12.55l6.87,2.09c6,2.07,11.88,4.55,17.82,6.83.26,3.78.27,7.32.4,11.15a80.13,80.13,0,0,1,.49,10.95c-.35,3.51-1.24,6.89-1.79,10.3l-.1,1.06M108.87,141a77.37,77.37,0,0,1-7.75-8.33,40.58,40.58,0,0,1-7.78-21.14c5.7.34,11.73.22,17.52,2.55s5.55,2.6,8.38,3.37l1.51.43a26.81,26.81,0,0,1-1.2,10.93,17.88,17.88,0,0,1-4.25,6.52c-1.81,1.88-3.16,4.08-4.91,6.11l-.48.52-1-1m8-43.25c-3.36-7-7.3-13.74-9.48-21.17a13.41,13.41,0,0,1,.54-9.15,29.14,29.14,0,0,1,4-8.11,25.61,25.61,0,0,1,5.82-4.6,61.75,61.75,0,0,1,8.71-5L135,46.07a19.43,19.43,0,0,1,10.47-1.31l2.1.2c-2.53,2.66-3.17,7.13-3.88,11.45a70.43,70.43,0,0,0-.69,10c.1,3.34,1,6.54,1.23,9.82s-.49,5.76-.35,8.74l.06,1.5c-5,3.12-10.46,7.9-11.06,14.71s2.28,8.57,5.08,11.89,5.08,4.46,6.86,7.32a38,38,0,0,1,2,4.45l-5.38-2.16c-6.35-2.45-12.69-4.91-19-6.73a59.74,59.74,0,0,0-5.65-18.25M157.24,45l1.66.37A29.23,29.23,0,0,0,160,59.12c2.4,6.68,7.11,12.8,10.92,18.76a96.55,96.55,0,0,0-10.22,2.4,72.47,72.47,0,0,0-14.29,5l-.29.12c-.06-2.35.24-4.65.27-7.2s-1-6.19-1.36-9.26a56.49,56.49,0,0,1,.61-12.05c.4-3.36.77-7.21,2.71-9.64a7,7,0,0,1,3.49-2.36l5.53-.09m78.38,58.67c-1.66,5.37-3.37,10.58-7.14,14.39a74.31,74.31,0,0,1-15.5,12.36,37.28,37.28,0,0,1-6.07,2.67c-.75-2.41-1.51-4.82-2.35-7s-.4-3.22-.73-5a39.07,39.07,0,0,0,6.6-17.55,77.74,77.74,0,0,0-.28-17.45,18.76,18.76,0,0,0-.43-2.87l.89-1.19A25.15,25.15,0,0,1,214.47,78l2.62-.66a133.54,133.54,0,0,1,9.3,10.6,63.75,63.75,0,0,1,6.49,9,45.54,45.54,0,0,1,2.92,6.3m-30.36,32.58.3-.11c.19.94.58,2,.77,2.91a10.74,10.74,0,0,1-.92-2.86M179.93,87.4a54.69,54.69,0,0,1-3.44-4.58l-2-3.1,6.62-.35a14,14,0,0,0-1.16,5.34l0,2.69m1.9.12a13.64,13.64,0,0,1,1.55-7.85h0l1.4.14a121.72,121.72,0,0,0,19.75,0l2.63-.17.57,1.47.21,1.44a36.44,36.44,0,0,0-5.85,12.88A52.33,52.33,0,0,0,200.64,111c.17,2.64.54,5.37.91,8.09A147.59,147.59,0,0,0,190,99.92c-2.56-3.57-5.29-6.74-8-9.91v-2.2m26.21-10.4-.34-.88,3.86.38-3.52.5m2.58,1.88-1.43,1.56a6.68,6.68,0,0,0-.36-1.38l1.79-.18m-4.22-1.76-7.91.51a82.57,82.57,0,0,1-9.57.13l-3.5-.34a15.89,15.89,0,0,1,8.92-2.25,93.94,93.94,0,0,1,11.61.78l.51,1.32m1.9,8a75.75,75.75,0,0,1,.59,14.28,38.39,38.39,0,0,1-4.38,16.71l-1.17,1.79a23.73,23.73,0,0,1-.45-3.37,52.18,52.18,0,0,1,.55-18.77,37.92,37.92,0,0,1,4.55-11m-5.92,40.41c.23,1.93.47,3.87.65,5.66l.17,2.63a54.43,54.43,0,0,1-12.9,1.58l4.12-3.78a82.19,82.19,0,0,0,7.08-8l.67,1.77m4.41-51.81a36.17,36.17,0,0,0-2.59-4.58A37.25,37.25,0,0,0,201.41,66c2.88,1.77,5.8,3.68,8.59,5.65l3.47,2.89-7.07-.83m-2-.26-2.31-.3a47.71,47.71,0,0,0-12.52-.09A12.31,12.31,0,0,0,182,77l-3.25-.11a45.16,45.16,0,0,0-6.26.38c-3.21-4.84-6.39-10-9.16-15.05a26.51,26.51,0,0,1-2.84-16.63c4.66,1.59,9.31,4,13.94,6a151.3,151.3,0,0,1,18.42,9.3l2.81,1.62a39,39,0,0,1,8.77,11M166.61,46.11a52.09,52.09,0,0,1,9.66,4l-9.66-4m-20.85,72.3c-3.53-4.38-10.15-8.43-10.88-14.73s2.28-8.13,4.71-10.58A30.43,30.43,0,0,1,144.45,89c.35,2.23.7,4.46,1,6.54A142.88,142.88,0,0,1,147,117.25l0,3.19a11.14,11.14,0,0,0-1.23-1.89M160.35,130l-10.6-3.86-.34-.89c-.14-2.13-.29-4.27-.29-6.47a157.33,157.33,0,0,0-1.32-20.58c-.45-3.37-1.05-6.69-1.5-10.06h0l2.24-1.2a91.83,91.83,0,0,1,16.67-5.38l7.07-1.37a80.17,80.17,0,0,0,4.7,7l2.79,3.32c-.06,2,0,4-.17,6.14-.37,7.4,0,15-.55,22.32a66.71,66.71,0,0,1-3.23,15.75,87.58,87.58,0,0,1-15.62-4.63m20.56-9.75c.57-7.31.18-14.92.55-22.32l.16-5.29L184.26,96a134.91,134.91,0,0,1,13,19.67c1.14,2.1,2.28,4.19,3.28,6.34a86.28,86.28,0,0,1-8.47,9.15l-5.13,4.67a83,83,0,0,1-8.76-.85l-.15.06a69,69,0,0,0,2.93-14.8m6.89,18a66.48,66.48,0,0,0,14.35-1.29l1.32-.51a14.15,14.15,0,0,0,1.1,3.29,8.33,8.33,0,0,0,2.47,2.93l-17-.73-6.3-.12,3.65-3.26.59-.22m36,7.26A44.89,44.89,0,0,0,212,143.12l-2.24-1-.87-.51-1.32-6.07a38.88,38.88,0,0,0,9.37-4.61,68.85,68.85,0,0,0,14.45-12.47,32.76,32.76,0,0,0,5.43-11.36l.85,2.2c2.45,6.83,5.49,14.77,4.66,21.84s-5.48,9-9.14,11.78a14.61,14.61,0,0,1-9,2.59m8.28-52.28a155.69,155.69,0,0,0-12.34-15l6.79,1.44A86,86,0,0,1,239.38,84a97.73,97.73,0,0,1-2.58,17,43.45,43.45,0,0,0-4.29-7.64m-13-20.66-3,1.83a80.53,80.53,0,0,0-14-10L196.8,61c-6.55-6.09-14.46-10-22-13.82a40.55,40.55,0,0,0-13.4-4.14c1.68-11.45,5.43-22.34,15.23-26.27,4.35-1.84,10.31-2.6,15.19-.43a70.19,70.19,0,0,1,16.77,10.27,210.89,210.89,0,0,1,15.91,16.84A99.83,99.83,0,0,1,236.25,58.7,18.39,18.39,0,0,1,234,64.63c-5.26,1.68-9.9,5-14.77,7.7m9.94-3.14-1.89,1.23-4.87,2.71,1.18-.45,5.54-3.14M93.43,90.23c-.24-7.67,2.75-14.39,5.15-20.88l3.91-9.6a45.84,45.84,0,0,1,5.12-8.21c1.73-2.52,2.89-5.66,4.36-8.42a52.67,52.67,0,0,1,5.76-8.29c4.41-5.23,9.58-8.91,14.78-12.93a67.94,67.94,0,0,1,7.66-6c2.92-1.63,6.07-2.66,9.1-4s5.34-3.23,8-4.6a40.09,40.09,0,0,1,9.79-3.08,90.47,90.47,0,0,1,9-1.25,89,89,0,0,1,9.79-.88,33.46,33.46,0,0,1,8.4,1.66c3,.87,5.95,1.43,8.87,2a35.58,35.58,0,0,1,14.31,7.84A48.37,48.37,0,0,1,230.06,30.7c2.7,5.71,5.62,12,6.35,18.31a31.69,31.69,0,0,1,.14,6.53,91.39,91.39,0,0,0-6.35-8.19c-4.63-5.48-9.36-10.75-14.37-15.92a66.31,66.31,0,0,0-15.69-12.71c-4.9-2.67-9.57-5.6-14.72-5.82a23.57,23.57,0,0,0-13.3,3.59C164,21.64,160.9,32.1,159.43,42.79h0l-1.7,0-.14.06a12.77,12.77,0,0,0-6.38.09l-1.85,0c-2.89-.07-5.87-.79-8.71-.71a27.66,27.66,0,0,0-8.4,2.72,93.78,93.78,0,0,0-9,3.94q-3.58,2-6.94,4.35a24,24,0,0,0-5.68,4.55,27.53,27.53,0,0,0-3.84,6.7,20.12,20.12,0,0,0-2.15,7.58,24.35,24.35,0,0,0,2,8.69,109.1,109.1,0,0,0,5.09,11c3.72,7.51,7.68,15.62,8.79,23.79-5.77-1.83-11.08-4.69-17-5.47a93.62,93.62,0,0,0-10.32-.93c-.23-6.33.44-12.49.15-19M50,128a8.33,8.33,0,0,1,2.57-6L58,116.3c9.05-8.53,21.68-6,33.4-4.89A45.69,45.69,0,0,0,96,128.07c3.16,6,7.86,10.82,12.45,15.3h0l-4.27,3.83a46.52,46.52,0,0,1-6.28,5.62c-2.27,1.55-5,1.42-7.75,1.79s-5.76,1.71-9.12,1.31a71.37,71.37,0,0,1-8.48-2.32c-3-.86-6-.72-9.14-1.38s-4.59-2.29-6.87-2.09a48.94,48.94,0,0,1-3-6.45A43.73,43.73,0,0,1,50,128m95,41.33c-1,3.44-2.75,6.45-4.06,9.65s-3.09,14.36-9.38,16.43-11.85-.51-17.34-3a65.09,65.09,0,0,0-7.62-3.15,98,98,0,0,1-9.23-3.38,75.55,75.55,0,0,1-8.06-5.17c-2.93-1.92-5.86-3.83-8.7-5.95-8.34-5.91-16.84-13.1-22.59-22.37a10.63,10.63,0,0,1,2.38.94c2.85,1.27,5.54,1.25,8.35,1.52,5.87.78,11.56,4.17,17.45,3.26,2.52-.47,5.08-1.28,7.66-1.59a12.48,12.48,0,0,0,6.62-2.54c2.07-1.64,3.88-3.52,5.75-5.25L110.4,145a56.58,56.58,0,0,0,5.25,4.9,36.87,36.87,0,0,0,7.38,4.26c2.5,1.23,5,2.11,7.44,3.55s5.45,3.65,8.3,4.92a16.19,16.19,0,0,0,7.21.77l.59-.22a45.81,45.81,0,0,1-1.31,6.24m3.86-8.4-.15.05c.31-3.15,1.23-6,1.53-9.19a48.52,48.52,0,0,0-.17-10.57c-.3-3.43-.31-7-.47-10.45l-.18-1.79h0c4,4.71,8.14,8,13.44,9.52l7.56,1.66,2.88.92c-4.74,10.93-12.88,19.63-24.5,19.7m27.24-20.92.67-1.78.3-1,7.22.78a24.78,24.78,0,0,0-3.38,3.49l-.3.11-4.45-1.49m-1.18,21.54c1-2.73,2.15-5.38,2.92-8.21a45,45,0,0,1,3.31-8.52l.51-.87c4.67.73,9.24.33,13.74.63l11.64.42a58.34,58.34,0,0,1,.38,15.05A54.74,54.74,0,0,1,201.63,180l-3.85,7.55a29.34,29.34,0,0,1-2.22,3.89c-4.72-5.27-9.3-10.6-14.57-14.66a24.24,24.24,0,0,0-9.18-4.57A64.23,64.23,0,0,1,175,161.68m10.74,46a29.29,29.29,0,0,1-9.25-8.26c-3.84-5.62-5.2-12.69-5.35-19.21a40.33,40.33,0,0,1,.44-5.91l2.07.56c4.45,1.49,8.5,5,12.11,8.68s5.91,6.17,8.94,9.23l-2.21,3a112.94,112.94,0,0,0-6.66,11.67m-2.82,5a52.35,52.35,0,0,1-11.57,13.38c-4.56,4-9.55,7.21-15.5,8s-11.17,1.25-15.8-2a11,11,0,0,1-4.93-9.75c.23-3.8,1.81-7.61,2.91-10.9a91.61,91.61,0,0,1,8.39-18.58c3.24-5.63,6.91-10.58,12-14.05,2.27-1.55,4.12-3.78,6.93-4.35a14,14,0,0,1,3.93-.33l-.12,1.9c-.72,11.76,2.5,24.53,12.53,31.31l3.13,2L183,212.44m52-.38a26.37,26.37,0,0,1-7.64,4.28,22.67,22.67,0,0,1-7.26,2.62,33.54,33.54,0,0,1-9.47-.93,71.51,71.51,0,0,1-18.31-6.81l-4.91-2.67a91.11,91.11,0,0,1,7.79-13.11l.75-1.14,1.47,1.63c4.15,4.66,8.63,8.84,14,11a34.08,34.08,0,0,0,16.43,2.8,66.2,66.2,0,0,0,10-1.64,24.69,24.69,0,0,1-3.12,3.73M260.61,97.1a48.9,48.9,0,0,1,10.52,17.74,99.58,99.58,0,0,1,2.06,11.52c.68,4,1.3,7.77,1.77,11.64a49.64,49.64,0,0,1-1.48,20.32c-2,6.32-5.26,11.8-7.68,17.8a32.7,32.7,0,0,1-4.81,8.59c-2.08,2.49-3.76,5.16-5.84,7.64a53.07,53.07,0,0,1-6,6.36,39.79,39.79,0,0,1-6.21,4.91,30.19,30.19,0,0,0,3-12.3,57.39,57.39,0,0,0-.19-7.53c-.3-3.42-2-6.49-2.58-9.8-1.08-6.34-2.69-13.15-6.47-18.62a29.56,29.56,0,0,0-9-8.37l2-.44a18.68,18.68,0,0,0,6.32-3.78c3.37-2.64,6.87-5.84,7.64-10.86s-1-13.47-3.07-19.41c-1.13-2.94-2.11-5.94-3.24-8.88l.49-1.37a93.1,93.1,0,0,0,2.79-17.78l4.54,2.14c5.31,2.85,11,5.74,15.53,10.57M239,69.79c.27,1.59.54,3.17.75,4.61a30.45,30.45,0,0,1-.46,6.25l-.11,1.06a97.75,97.75,0,0,0-17.8-5.49l.89-.34c4.44-2,9.57-4.52,12.67-8.75l.15,0,3.4-.8a29.08,29.08,0,0,0,.57,3.66"></path></g></g></g></g></svg>