<svg xmlns="http://www.w3.org/2000/svg" xmlns:xlink="http://www.w3.org/1999/xlink" width="500" viewBox="0 0 375 374.999991" height="500" preserveAspectRatio="xMidYMid meet"><defs><clipPath id="b41e86bca8"><path d="M 146.015625 148.246094 L 229 148.246094 L 229 226.996094 L 146.015625 226.996094 Z M 146.015625 148.246094 "></path></clipPath></defs><g id="93b0e0d0c5"><g clip-rule="nonzero" clip-path="url(#b41e86bca8)"><path style=" stroke:none;fill-rule:nonzero;fill:#fc1270;fill-opacity:1;" d="M 166.660156 193.902344 C 166.707031 193.9375 166.726562 193.949219 166.742188 194.0625 C 166.765625 194.148438 166.785156 194.253906 166.800781 194.371094 C 166.8125 194.476562 166.820312 194.582031 166.828125 194.683594 C 166.84375 194.921875 166.863281 195.207031 166.835938 195.5 C 166.816406 195.78125 166.726562 196.09375 166.472656 196.34375 C 166.34375 196.464844 166.167969 196.578125 165.925781 196.660156 C 165.679688 196.742188 165.347656 196.792969 165.027344 196.78125 C 164.976562 196.78125 164.753906 196.746094 164.660156 196.699219 C 163.933594 196.175781 163.398438 195.632812 162.875 195.097656 L 161.441406 193.570312 C 161.214844 193.320312 160.996094 193.113281 160.78125 192.910156 L 160.105469 192.238281 L 158.003906 190.121094 C 157.289062 189.410156 156.691406 188.722656 156.03125 188.023438 C 153.496094 185.210938 150.628906 182.714844 148.054688 179.566406 L 147.574219 178.984375 L 147.429688 178.8125 C 147.371094 178.753906 147.28125 178.585938 147.214844 178.480469 C 147.0625 178.289062 146.890625 178.105469 146.730469 177.914062 C 146.402344 177.53125 146.214844 177.148438 146.128906 176.808594 C 146.039062 176.464844 146.023438 176.132812 146.113281 175.730469 C 146.203125 175.34375 146.398438 174.976562 146.652344 174.699219 C 146.882812 174.402344 147.195312 174.167969 147.578125 173.980469 C 147.96875 173.804688 148.402344 173.660156 148.871094 173.570312 C 149.097656 173.511719 149.339844 173.484375 149.570312 173.441406 L 150.054688 173.378906 C 152.117188 173.152344 154.09375 173.167969 155.992188 173.175781 L 160.136719 173.1875 C 161.5 173.148438 162.871094 173.148438 164.226562 173.074219 L 166.253906 172.941406 C 166.933594 172.90625 167.609375 172.855469 168.273438 172.765625 L 170.277344 172.53125 L 170.78125 172.472656 C 170.941406 172.453125 171.136719 172.441406 171.238281 172.402344 C 171.476562 172.320312 171.726562 172.3125 171.957031 172.195312 C 173.890625 171.511719 175.371094 169.4375 176.488281 167.089844 C 177.058594 165.914062 177.558594 164.664062 178.082031 163.371094 L 178.882812 161.457031 C 179.105469 160.894531 179.332031 160.230469 179.554688 159.582031 C 180.007812 158.273438 180.46875 156.9375 180.992188 155.605469 C 181.519531 154.269531 182.085938 152.9375 182.867188 151.597656 C 183.269531 150.925781 183.695312 150.253906 184.371094 149.578125 C 184.550781 149.410156 184.722656 149.246094 184.953125 149.082031 C 185.0625 149 185.160156 148.921875 185.300781 148.847656 C 185.433594 148.777344 185.621094 148.660156 185.777344 148.597656 C 186.410156 148.335938 187.121094 148.246094 187.785156 148.417969 C 188.445312 148.535156 189.105469 149.019531 189.453125 149.328125 C 189.832031 149.675781 190.125 150.027344 190.378906 150.378906 C 190.882812 151.078125 191.246094 151.765625 191.574219 152.449219 C 192.222656 153.800781 192.699219 155.175781 193.1875 156.386719 C 193.4375 156.957031 193.710938 157.636719 193.964844 158.277344 L 194.742188 160.222656 L 195.519531 162.164062 L 196.347656 164.015625 C 196.910156 165.234375 197.421875 166.507812 198.023438 167.683594 C 198.660156 168.835938 199.3125 169.929688 200.082031 170.679688 C 200.835938 171.4375 201.8125 171.957031 202.914062 172.257812 C 204.023438 172.558594 205.308594 172.660156 206.660156 172.726562 C 207.335938 172.765625 208.039062 172.78125 208.761719 172.832031 C 209.476562 172.855469 210.230469 172.992188 210.898438 173.007812 L 214.921875 173.15625 C 216.277344 173.199219 217.695312 173.207031 219.082031 173.234375 C 220.515625 173.257812 221.75 173.285156 223.179688 173.253906 C 223.886719 173.246094 224.617188 173.242188 225.4375 173.3125 C 226.042969 173.375 226.785156 173.511719 227.34375 173.800781 C 227.917969 174.085938 228.371094 174.53125 228.640625 175.097656 C 228.894531 175.671875 228.941406 176.300781 228.785156 176.933594 C 228.644531 177.570312 228.269531 178.207031 227.976562 178.691406 C 227.511719 179.402344 227.027344 179.933594 226.554688 180.5 C 225.601562 181.628906 224.554688 182.640625 223.507812 183.617188 C 221.394531 185.546875 219.246094 187.265625 217.214844 189.089844 C 216.207031 190.003906 215.210938 190.925781 214.1875 191.878906 C 213.195312 192.804688 212.308594 193.699219 211.730469 194.632812 C 211.167969 195.570312 210.917969 196.503906 210.992188 197.625 C 211.058594 198.816406 211.3125 200.070312 211.660156 201.335938 C 212.011719 202.605469 212.453125 203.898438 212.886719 205.222656 L 214.164062 209.222656 L 216.71875 217.117188 C 216.933594 217.761719 217.148438 218.472656 217.34375 219.023438 C 217.558594 219.636719 217.867188 220.339844 218.050781 221.265625 C 218.136719 221.726562 218.195312 222.273438 218.089844 222.894531 C 217.996094 223.511719 217.699219 224.171875 217.277344 224.664062 C 216.824219 225.160156 216.367188 225.472656 215.894531 225.695312 C 215.417969 225.933594 214.921875 226.074219 214.441406 226.15625 C 213.476562 226.308594 212.574219 226.238281 211.753906 226.070312 C 210.929688 225.902344 210.164062 225.644531 209.429688 225.324219 C 209.039062 225.15625 208.742188 224.988281 208.421875 224.824219 L 207.464844 224.324219 C 206.832031 223.972656 206.175781 223.695312 205.566406 223.28125 L 203.710938 222.097656 L 201.992188 220.832031 L 198.671875 218.335938 C 196.355469 216.628906 194.289062 214.625 192.234375 213.257812 C 191.730469 212.941406 191.230469 212.679688 190.78125 212.527344 C 190.339844 212.394531 189.996094 212.382812 189.675781 212.464844 C 189.542969 212.46875 189.269531 212.621094 189.027344 212.746094 L 188.648438 212.9375 L 188.207031 213.1875 C 187.617188 213.519531 187.027344 213.84375 186.433594 214.199219 C 184.054688 215.578125 181.675781 217.011719 179.300781 218.433594 C 176.910156 219.855469 174.554688 221.277344 172.101562 222.691406 C 170.980469 223.324219 169.785156 224.105469 168.539062 224.8125 C 167.910156 225.167969 167.265625 225.515625 166.578125 225.84375 L 166.046875 226.082031 L 165.769531 226.195312 C 165.695312 226.226562 165.5 226.292969 165.371094 226.339844 C 164.785156 226.546875 164.0625 226.738281 163.457031 226.710938 C 162.839844 226.695312 162.265625 226.550781 161.796875 226.171875 C 161.320312 225.796875 161.003906 225.28125 160.886719 224.699219 C 160.847656 224.558594 160.839844 224.398438 160.824219 224.246094 C 160.816406 224.175781 160.804688 224.082031 160.808594 224.027344 L 160.835938 223.867188 L 161.152344 221.992188 L 161.578125 219.488281 L 162.058594 217.441406 L 163.617188 210.855469 C 163.863281 209.878906 164.039062 208.910156 164.246094 207.9375 C 164.246094 207.9375 164.609375 206.691406 165.097656 205.011719 C 165.609375 203.261719 166.230469 201.226562 166.578125 199.484375 C 166.839844 198.015625 166.820312 197.105469 166.640625 196.722656 C 166.550781 196.515625 166.394531 196.417969 166.3125 196.316406 C 166.226562 196.222656 166.230469 196.140625 166.316406 196.058594 C 166.417969 195.992188 166.671875 195.910156 167.015625 196.050781 C 167.359375 196.1875 167.671875 196.535156 167.871094 196.917969 C 168.277344 197.703125 168.417969 198.675781 168.46875 199.707031 C 168.492188 199.597656 168.523438 200.167969 168.484375 201.050781 C 168.445312 201.9375 168.332031 203.140625 168.175781 204.332031 C 168.011719 205.503906 167.847656 206.6875 167.726562 207.578125 C 167.59375 208.480469 167.503906 209.082031 167.503906 209.082031 L 167.203125 210.554688 C 167.152344 210.804688 167.089844 211.042969 167.035156 211.285156 L 166.308594 214.347656 L 165.375 218.304688 L 164.917969 220.257812 L 164.625 221.792969 L 164.382812 223.058594 L 164.398438 223.054688 L 164.636719 222.957031 C 164.769531 222.902344 164.910156 222.835938 165.042969 222.777344 C 165.597656 222.523438 166.160156 222.21875 166.726562 221.898438 C 167.875 221.253906 168.972656 220.539062 170.234375 219.8125 L 173.726562 217.765625 L 180.730469 213.585938 L 184.257812 211.5 C 184.847656 211.152344 185.4375 210.808594 186.050781 210.46875 L 186.960938 209.957031 C 187.28125 209.78125 187.683594 209.589844 188.042969 209.414062 C 188.140625 209.371094 188.214844 209.324219 188.332031 209.285156 L 188.703125 209.175781 C 188.953125 209.109375 189.199219 209.035156 189.457031 209.019531 C 189.980469 208.945312 190.480469 208.988281 190.972656 209.050781 C 191.925781 209.230469 192.710938 209.589844 193.421875 209.972656 C 194.796875 210.769531 195.894531 211.679688 196.964844 212.554688 C 198.03125 213.4375 199.046875 214.300781 200.082031 215.105469 L 203.328125 217.550781 C 205.484375 219.207031 207.542969 220.597656 209.9375 221.746094 C 210.542969 222.078125 211.023438 222.296875 211.570312 222.480469 C 212.105469 222.65625 212.644531 222.769531 213.132812 222.808594 C 213.617188 222.835938 214.03125 222.769531 214.335938 222.644531 C 214.464844 222.578125 214.640625 222.480469 214.652344 222.445312 C 214.691406 222.402344 214.699219 222.410156 214.703125 222.367188 C 214.714844 222.324219 214.726562 222.207031 214.703125 222.019531 C 214.675781 221.832031 214.609375 221.585938 214.523438 221.320312 C 214.4375 221.050781 214.324219 220.75 214.203125 220.425781 C 214.082031 220.105469 213.949219 219.703125 213.847656 219.382812 L 212.589844 215.492188 L 210.082031 207.71875 C 209.320312 205.191406 208.277344 202.601562 207.769531 199.65625 C 207.691406 199.296875 207.675781 198.910156 207.628906 198.535156 C 207.582031 198.171875 207.558594 197.769531 207.546875 197.359375 C 207.546875 196.53125 207.648438 195.660156 207.898438 194.832031 C 208.417969 193.164062 209.441406 191.804688 210.460938 190.738281 C 210.972656 190.195312 211.492188 189.707031 211.996094 189.234375 L 213.496094 187.84375 C 214.507812 186.894531 215.546875 185.988281 216.585938 185.085938 C 218.660156 183.285156 220.765625 181.589844 222.582031 179.75 C 223.015625 179.28125 223.496094 178.835938 223.886719 178.339844 C 224.289062 177.855469 224.742188 177.359375 225.039062 176.910156 L 225.152344 176.734375 L 225.144531 176.734375 L 224.871094 176.710938 L 224.421875 176.6875 C 224.117188 176.679688 223.796875 176.679688 223.464844 176.679688 L 221.414062 176.699219 L 217.300781 176.636719 L 215.265625 176.601562 L 213.164062 176.523438 L 211.058594 176.441406 C 210.714844 176.421875 210.34375 176.421875 210.019531 176.390625 L 209.046875 176.289062 C 207.777344 176.1875 206.40625 176.183594 204.960938 176.058594 C 203.535156 175.933594 201.945312 175.695312 200.445312 175.007812 C 198.953125 174.363281 197.570312 173.214844 196.640625 171.941406 C 196.167969 171.3125 195.777344 170.675781 195.417969 170.054688 C 195.054688 169.425781 194.707031 168.796875 194.441406 168.15625 L 192.726562 164.332031 C 192.144531 163.054688 191.699219 161.816406 191.179688 160.558594 L 190.429688 158.675781 C 190.171875 158.066406 189.859375 157.339844 189.628906 156.714844 C 189.144531 155.449219 188.671875 154.230469 188.101562 153.191406 C 187.824219 152.675781 187.5 152.210938 187.21875 151.9375 C 187.15625 151.875 187.078125 151.828125 187.054688 151.792969 L 187.058594 151.792969 C 187.070312 151.785156 187.089844 151.78125 187.058594 151.792969 C 187 151.84375 186.945312 151.863281 186.871094 151.941406 C 186.730469 152.0625 186.566406 152.25 186.40625 152.457031 C 186.085938 152.878906 185.777344 153.398438 185.488281 153.945312 C 184.335938 156.167969 183.488281 158.714844 182.597656 161.292969 L 182.238281 162.289062 L 182.035156 162.816406 L 181.820312 163.320312 L 181.058594 165.167969 C 180.546875 166.429688 180.011719 167.734375 179.355469 169.027344 C 178.703125 170.320312 177.933594 171.617188 176.875 172.804688 C 175.832031 173.980469 174.433594 175.054688 172.769531 175.554688 C 172.359375 175.65625 171.894531 175.789062 171.527344 175.84375 L 168.398438 176.207031 C 167.007812 176.371094 165.621094 176.40625 164.234375 176.515625 C 162.851562 176.578125 161.46875 176.585938 160.089844 176.625 L 155.996094 176.613281 C 154.066406 176.601562 152.203125 176.597656 150.453125 176.789062 L 150.222656 176.820312 C 150.226562 176.8125 150.183594 176.753906 150.207031 176.78125 L 150.292969 176.886719 L 150.730469 177.410156 C 153.003906 180.207031 155.925781 182.789062 158.523438 185.660156 C 159.179688 186.355469 159.84375 187.113281 160.488281 187.75 L 162.4375 189.710938 L 162.902344 190.183594 L 163.105469 190.378906 C 163.402344 190.65625 163.683594 190.929688 163.925781 191.195312 L 165.347656 192.714844 C 165.796875 193.171875 166.253906 193.621094 166.660156 193.902344 "></path></g><path style=" stroke:none;fill-rule:nonzero;fill:#fc1270;fill-opacity:1;" d="M 150.796875 178.046875 C 150.734375 178.007812 150.714844 178 150.667969 177.886719 C 150.496094 177.53125 150.3125 176.953125 150.40625 176.375 C 150.507812 175.8125 150.890625 175.226562 152.148438 175.035156 C 152.195312 175.027344 152.40625 175.015625 152.488281 175.054688 C 153.660156 175.730469 154.691406 176.503906 155.671875 177.292969 L 157.085938 178.480469 L 157.257812 178.628906 L 158.804688 179.945312 C 159.9375 180.875 161.164062 181.8125 162.339844 182.746094 C 167.105469 186.476562 171.984375 190.246094 176.441406 194.570312 C 180.816406 198.878906 184.851562 203.378906 189.523438 206.902344 L 190.398438 207.554688 L 190.617188 207.71875 L 190.671875 207.761719 C 186.644531 213.308594 189.523438 209.269531 188.609375 210.496094 L 188.488281 210.398438 L 188.015625 210.007812 C 187.371094 209.5 186.800781 208.933594 186.210938 208.382812 C 185.082031 207.242188 184.027344 206.054688 183.054688 204.839844 C 182.082031 203.632812 181.144531 202.398438 180.238281 201.214844 C 179.3125 200.035156 178.347656 198.894531 177.40625 197.730469 L 177.402344 197.730469 C 174.023438 193.703125 170.402344 189.945312 166.496094 186.410156 C 164.421875 184.511719 162.667969 182.484375 160.835938 180.664062 C 159.925781 179.746094 158.988281 178.914062 158.027344 178.152344 C 157.789062 177.964844 157.535156 177.808594 157.292969 177.636719 L 156.921875 177.382812 L 156.738281 177.253906 L 156.714844 177.238281 C 160.660156 171.648438 157.816406 175.695312 158.699219 174.449219 L 158.710938 174.460938 L 158.757812 174.5 L 158.855469 174.582031 L 160.386719 175.871094 C 168.636719 182.6875 176.5625 189.832031 184.617188 196.742188 L 186.910156 198.726562 L 189.246094 200.640625 L 193.921875 204.46875 L 196.257812 206.382812 C 197.050781 207.042969 197.878906 207.710938 198.667969 208.394531 C 200.21875 209.785156 201.703125 211.226562 203.132812 212.664062 C 206.003906 215.53125 208.796875 218.351562 211.949219 220.5625 L 211.984375 220.589844 C 214.101562 218.429688 209.121094 223.550781 209.628906 223.011719 L 209.613281 222.992188 L 209.554688 222.921875 L 209.441406 222.78125 L 209.214844 222.492188 L 207.855469 220.769531 L 205.894531 218.566406 C 205.222656 217.84375 204.515625 217.144531 203.824219 216.433594 C 203.125 215.730469 202.390625 215.046875 201.671875 214.351562 C 198.761719 211.59375 195.707031 208.914062 192.789062 205.992188 L 188.460938 201.792969 C 187.035156 200.398438 185.5 199.054688 184.023438 197.683594 C 181.054688 194.929688 178.019531 192.195312 175.175781 189.195312 C 173.707031 187.71875 172.351562 186.261719 170.96875 184.800781 L 168.898438 182.613281 C 168.203125 181.886719 167.476562 181.1875 166.769531 180.472656 L 166.765625 180.472656 L 164.792969 178.507812 L 163.808594 177.523438 L 163.683594 177.402344 L 163.605469 177.324219 C 161.730469 179.722656 166.140625 174.039062 165.699219 174.632812 L 165.734375 174.65625 L 166.042969 174.863281 L 166.652344 175.277344 C 167.472656 175.828125 168.296875 176.367188 169.035156 176.996094 C 169.796875 177.601562 170.570312 178.195312 171.269531 178.855469 C 174.15625 181.40625 176.730469 184.179688 179.320312 186.832031 C 180.617188 188.164062 181.910156 189.4375 183.269531 190.6875 L 187.425781 194.414062 C 190.207031 196.894531 192.953125 199.390625 195.785156 201.851562 L 204.207031 209.238281 C 206.949219 211.644531 209.976562 213.914062 212.765625 216.625 C 213.445312 217.335938 214.148438 218.003906 214.777344 218.785156 L 215.261719 219.351562 L 215.503906 219.636719 L 215.519531 219.652344 C 211.488281 224.929688 214.386719 221.109375 213.480469 222.28125 L 213.429688 222.253906 L 213.328125 222.203125 L 213.125 222.09375 L 212.320312 221.640625 L 211.664062 221.140625 L 211.335938 220.886719 L 211.058594 220.640625 L 210.507812 220.152344 C 210.164062 219.832031 209.808594 219.554688 209.476562 219.210938 L 203.476562 213.117188 L 199.660156 208.996094 C 197.046875 206.199219 194.511719 203.328125 191.953125 200.484375 C 189.378906 197.6875 186.855469 194.828125 184.1875 192.144531 C 181.605469 189.363281 178.804688 186.851562 176.070312 184.257812 C 175.367188 183.648438 174.644531 183.085938 173.933594 182.496094 L 171.671875 180.722656 C 170.910156 180.074219 170.136719 179.480469 169.394531 178.78125 L 168.300781 177.683594 L 167.757812 177.132812 L 167.6875 177.0625 L 167.65625 177.027344 C 168.613281 175.863281 165.492188 179.613281 169.796875 174.410156 L 169.816406 174.425781 L 169.972656 174.523438 L 170.292969 174.726562 C 173.742188 176.8125 176.707031 179.402344 179.574219 181.953125 C 181.007812 183.234375 182.410156 184.511719 183.832031 185.742188 C 185.25 186.964844 186.714844 188.136719 188.207031 189.351562 C 191.171875 191.765625 194.164062 194.15625 197.089844 196.667969 L 198.195312 197.601562 L 201.417969 200.519531 C 202.855469 201.808594 204.203125 203.085938 205.640625 204.304688 C 206.3125 204.90625 207.003906 205.472656 207.703125 206.027344 C 208.394531 206.59375 209.089844 207.152344 209.8125 207.660156 L 210.886719 208.445312 L 211.15625 208.640625 L 211.222656 208.6875 L 211.257812 208.714844 C 210.265625 209.863281 213.5 206.164062 209.035156 211.289062 L 208.902344 211.15625 L 208.433594 210.671875 L 206.5625 208.742188 C 205.316406 207.449219 203.957031 206.25 202.660156 205 C 201.304688 203.792969 199.964844 202.582031 198.585938 201.390625 C 193.09375 196.628906 187.363281 191.960938 182.160156 186.652344 L 174.566406 178.691406 L 172.691406 176.71875 L 171.75 175.730469 L 171.515625 175.484375 L 171.457031 175.421875 L 171.429688 175.390625 C 175.339844 169.898438 172.523438 173.875 173.402344 172.652344 L 173.425781 172.664062 L 173.597656 172.761719 L 174.289062 173.152344 C 176.097656 174.238281 177.511719 175.597656 178.839844 176.917969 C 180.164062 178.242188 181.378906 179.597656 182.644531 180.714844 L 186.753906 184.335938 L 194.992188 191.585938 L 201.929688 197.699219 C 204.210938 199.738281 206.476562 201.613281 208.996094 202.800781 C 210.933594 200.601562 206.371094 205.8125 206.835938 205.269531 L 206.824219 205.257812 L 206.808594 205.230469 L 206.699219 205.082031 L 206.558594 204.882812 L 206.277344 204.480469 L 205.613281 203.699219 L 204.875 202.933594 L 204.085938 202.183594 C 202.988281 201.179688 201.824219 200.257812 200.582031 199.117188 L 193.933594 192.695312 L 187.296875 186.210938 C 186.195312 185.117188 185.074219 184.066406 183.988281 182.941406 C 182.910156 181.796875 181.839844 180.65625 180.816406 179.535156 L 180.039062 178.691406 L 179.253906 177.894531 C 178.726562 177.371094 178.214844 176.808594 177.671875 176.316406 L 176.023438 174.890625 L 175.609375 174.535156 L 175.597656 174.523438 C 173.539062 176.769531 178.386719 171.449219 177.894531 172.003906 L 177.96875 172.078125 L 178.066406 172.179688 L 178.261719 172.378906 L 179.054688 173.179688 C 181.121094 175.34375 183.4375 177.304688 185.757812 179.257812 C 190.320312 182.988281 195.183594 186.460938 199.914062 190.164062 C 202.289062 191.992188 204.605469 193.859375 206.988281 195.4375 L 208.335938 196.292969 L 208.449219 196.363281 L 208.476562 196.382812 L 208.488281 196.390625 C 207.558594 197.578125 210.597656 193.742188 206.40625 199.054688 L 206.355469 199.007812 L 206.160156 198.808594 L 204.597656 197.222656 L 201.46875 194.054688 L 195.101562 187.765625 L 191.925781 184.570312 C 190.875 183.492188 189.789062 182.464844 188.785156 181.335938 L 185.71875 178.007812 L 184.191406 176.351562 C 183.699219 175.886719 183.253906 175.414062 182.734375 174.945312 L 181.050781 173.539062 L 180.167969 172.796875 L 179.722656 172.425781 L 179.28125 172 L 178.40625 171.140625 L 178.078125 170.8125 C 177.621094 171.382812 181.976562 165.777344 180.140625 168.15625 L 180.15625 168.167969 L 180.191406 168.183594 L 180.257812 168.222656 L 180.785156 168.527344 L 181.835938 169.136719 C 182.171875 169.351562 182.492188 169.585938 182.820312 169.8125 C 185.160156 171.453125 187.167969 173.347656 189.136719 175.164062 C 190.121094 176.074219 191.085938 176.96875 192.074219 177.804688 L 195.128906 180.410156 L 198.199219 183.023438 C 199.222656 183.875 200.253906 184.679688 201.277344 185.511719 L 204.359375 187.988281 C 205.535156 188.824219 206.574219 189.789062 207.5 190.386719 L 207.84375 190.605469 L 208.164062 190.765625 C 208.273438 190.832031 208.367188 190.859375 208.453125 190.882812 L 208.589844 190.929688 L 208.621094 190.941406 L 208.644531 190.953125 C 207.886719 192.183594 210.355469 188.199219 206.949219 193.714844 L 206.867188 193.628906 L 205.605469 192.296875 L 204.175781 191.007812 C 203.691406 190.582031 203.164062 190.15625 202.660156 189.726562 C 200.53125 187.933594 198.566406 186.171875 196.546875 184.410156 L 190.511719 179.117188 C 188.496094 177.363281 186.507812 175.550781 184.441406 173.902344 C 182.476562 172.273438 180.441406 170.648438 178.578125 168.695312 L 177.1875 167.21875 L 177.167969 167.195312 C 176.734375 167.773438 180.875 162.117188 179.128906 164.515625 L 179.144531 164.523438 L 179.203125 164.546875 L 179.320312 164.601562 L 179.550781 164.707031 L 180.015625 164.917969 C 180.324219 165.058594 180.640625 165.191406 180.941406 165.34375 C 181.53125 165.667969 182.136719 165.972656 182.71875 166.3125 C 183.285156 166.664062 183.871094 167 184.421875 167.375 C 188.867188 170.335938 192.585938 174.007812 196.226562 177.578125 C 198.039062 179.359375 199.855469 181.15625 201.683594 182.800781 L 202.367188 183.414062 L 203.097656 184.011719 L 204.558594 185.214844 C 205.527344 186.011719 206.492188 186.75 207.480469 187.398438 C 207.96875 187.730469 208.472656 188.011719 208.972656 188.28125 C 209.222656 188.421875 209.484375 188.515625 209.734375 188.636719 L 209.925781 188.722656 L 210.019531 188.765625 L 210.066406 188.789062 L 210.09375 188.796875 C 211.945312 186.5625 207.582031 191.851562 208.027344 191.300781 L 208.019531 191.289062 L 207.753906 190.917969 L 206.703125 189.425781 L 206.179688 188.679688 C 206 188.433594 205.789062 188.207031 205.597656 187.96875 C 204.050781 186.070312 202.351562 184.265625 200.527344 182.566406 C 197.292969 179.515625 193.753906 176.722656 190.167969 173.933594 L 187.480469 171.855469 L 184.746094 169.800781 C 182.910156 168.386719 181.03125 166.863281 179.445312 164.921875 L 178.875 164.171875 L 178.589844 163.792969 L 178.554688 163.746094 L 178.535156 163.722656 C 182.816406 158.707031 179.730469 162.335938 180.6875 161.21875 L 180.699219 161.226562 L 180.800781 161.28125 L 180.996094 161.386719 L 182.574219 162.246094 C 183.09375 162.539062 183.636719 162.800781 184.136719 163.121094 L 185.605469 164.113281 L 187.074219 165.109375 L 188.453125 166.195312 L 189.835938 167.277344 C 190.292969 167.640625 190.714844 168.035156 191.15625 168.410156 C 194.675781 171.4375 197.90625 174.679688 201.21875 177.726562 L 203.742188 179.980469 L 206.320312 182.242188 C 208.015625 183.707031 209.734375 185.039062 211.574219 185.933594 L 211.914062 186.105469 L 212 186.148438 L 212.042969 186.171875 L 212.054688 186.175781 C 212.703125 186.308594 211.199219 186 211.28125 186.035156 C 211.226562 186.039062 211.171875 186.042969 211.121094 186.050781 L 211.363281 187.566406 C 211.371094 187.589844 211.378906 187.613281 211.386719 187.613281 C 211.363281 187.597656 211.339844 187.59375 211.324219 187.597656 L 211.308594 187.597656 C 212.554688 187.078125 209.597656 188.316406 209.902344 188.183594 L 209.894531 188.167969 C 209.816406 188.011719 209.765625 187.851562 209.640625 187.667969 C 209.441406 187.3125 209.132812 186.933594 208.8125 186.558594 C 208.140625 185.808594 207.335938 185.078125 206.496094 184.367188 C 205.652344 183.648438 204.765625 182.953125 203.859375 182.21875 C 203.40625 181.847656 202.949219 181.476562 202.484375 181.058594 L 201.183594 179.941406 C 199.460938 178.46875 197.761719 176.972656 196.011719 175.523438 L 190.675781 171.277344 L 187.929688 169.097656 C 187.050781 168.324219 186.136719 167.582031 185.289062 166.777344 C 184.433594 165.980469 183.570312 165.1875 182.753906 164.355469 L 181.828125 163.429688 L 181.671875 163.277344 L 181.632812 163.238281 L 181.625 163.226562 C 182.589844 162.058594 179.449219 165.828125 183.785156 160.605469 L 183.808594 160.621094 L 183.898438 160.6875 L 185.332031 161.703125 C 192.449219 166.722656 198.46875 172.859375 204.734375 178.460938 L 207.109375 180.582031 C 207.898438 181.292969 208.671875 181.984375 209.457031 182.632812 C 211.015625 183.925781 212.648438 185.085938 214.316406 185.683594 L 214.933594 185.878906 L 215.242188 185.941406 L 215.394531 185.976562 L 215.511719 186 C 216.996094 183.597656 213.5 189.277344 213.855469 188.6875 L 213.847656 188.679688 L 213.835938 188.660156 L 212.890625 187.410156 C 212.25 186.585938 211.652344 185.714844 210.976562 184.929688 L 208.992188 182.523438 L 206.898438 180.25 C 206.617188 179.953125 206.351562 179.636719 206.058594 179.359375 L 203.386719 176.898438 L 203.359375 176.871094 C 204.375 175.738281 201.050781 179.371094 205.628906 174.324219 L 206.03125 174.71875 L 206.480469 175.164062 L 207.371094 176.046875 C 207.960938 176.625 208.550781 177.195312 209.148438 177.742188 C 210.347656 178.839844 211.578125 179.878906 212.855469 180.730469 C 213.171875 180.957031 213.496094 181.121094 213.816406 181.324219 L 214.460938 181.648438 L 214.476562 181.652344 L 214.476562 181.640625 L 214.472656 181.632812 L 213.976562 180.882812 C 213.535156 180.246094 213.042969 179.605469 212.535156 178.964844 L 211.75 177.984375 L 211.347656 177.472656 L 211.148438 177.21875 L 211.125 177.1875 C 212.253906 176.171875 208.558594 179.417969 213.648438 174.90625 L 213.707031 174.960938 L 213.820312 175.074219 L 215.753906 176.984375 C 215.984375 177.210938 216.214844 177.421875 216.445312 177.625 C 216.90625 178.050781 217.371094 178.421875 217.839844 178.765625 C 217.839844 178.765625 217.84375 178.769531 217.914062 178.816406 C 217.933594 178.832031 218.023438 178.90625 218.179688 179.035156 C 218.257812 179.097656 218.351562 179.171875 218.464844 179.261719 C 218.574219 179.335938 218.703125 179.417969 218.847656 179.507812 L 218.851562 179.511719 C 218.976562 179.589844 219.113281 179.703125 219.269531 179.78125 C 219.421875 179.859375 219.59375 179.941406 219.773438 180.03125 L 219.890625 180.09375 L 219.976562 180.136719 C 219.144531 180.695312 221.835938 178.886719 218.113281 181.386719 L 218.113281 181.382812 L 218.117188 181.375 C 218.121094 181.339844 218.132812 181.308594 218.152344 181.273438 C 218.152344 181.183594 218.164062 181.070312 218.125 180.90625 C 218.0625 180.582031 217.867188 180.128906 217.652344 179.59375 C 217.597656 179.453125 217.546875 179.328125 217.496094 179.167969 L 217.417969 178.9375 L 217.382812 178.828125 L 217.378906 178.8125 L 217.375 178.804688 L 217.375 178.800781 C 217.097656 179.128906 219.757812 175.914062 218.632812 177.277344 L 218.664062 177.289062 L 218.726562 177.308594 C 219.066406 177.425781 219.390625 177.550781 219.636719 177.695312 C 219.921875 177.835938 220.121094 177.972656 220.355469 178.113281 L 220.65625 178.292969 L 220.804688 178.386719 L 220.808594 178.386719 L 220.8125 178.390625 C 220.296875 178.75 221.972656 177.585938 219.65625 179.199219 L 219.660156 179.179688 L 219.667969 179.144531 L 219.679688 179.070312 L 219.710938 178.929688 C 219.738281 178.808594 219.769531 178.667969 219.800781 178.582031 L 219.898438 178.351562 C 219.957031 178.210938 220.015625 178.078125 220.070312 177.953125 C 220.195312 177.695312 220.230469 177.554688 220.300781 177.394531 C 220.5 177.191406 220.699219 176.984375 220.890625 176.789062 C 221.808594 176.90625 222.390625 177.273438 222.636719 177.5625 C 222.890625 177.851562 222.886719 178.015625 222.773438 178.082031 C 222.644531 178.148438 222.410156 178.132812 222.105469 178.113281 C 221.792969 178.109375 221.390625 178.128906 220.910156 178.222656 L 221.734375 177.375 C 221.742188 177.5625 221.738281 177.765625 221.726562 177.976562 C 221.714844 178.167969 221.683594 178.308594 221.660156 178.484375 C 221.609375 178.792969 221.5625 179.144531 221.585938 179.160156 L 221.597656 179.160156 C 221.546875 179.160156 221.46875 179.164062 221.363281 179.164062 C 221.304688 179.167969 221.242188 179.171875 221.171875 179.175781 L 221.132812 179.179688 C 222.035156 178.257812 219.894531 180.429688 220.117188 180.207031 L 220.109375 180.207031 L 220.09375 180.203125 C 220.011719 180.175781 219.878906 180.136719 219.703125 180.082031 C 219.351562 179.96875 218.886719 179.78125 218.464844 179.691406 L 218.316406 179.667969 L 218.242188 179.652344 L 218.207031 179.648438 L 218.195312 179.644531 L 218.191406 179.644531 C 221.039062 176.203125 218.980469 178.691406 219.617188 177.921875 L 219.617188 177.925781 L 219.628906 177.949219 C 219.691406 178.058594 219.757812 178.171875 219.820312 178.289062 C 219.992188 178.574219 220.171875 178.867188 220.351562 179.164062 C 220.550781 179.492188 220.765625 179.925781 220.925781 180.4375 C 220.988281 180.714844 221.066406 180.980469 221.0625 181.296875 L 221.070312 181.527344 L 221.070312 181.640625 L 221.066406 181.695312 L 221.066406 181.710938 C 220.21875 182.285156 222.96875 180.4375 219.164062 182.992188 L 219.15625 182.992188 L 219.136719 182.984375 L 218.835938 182.894531 C 218.292969 182.734375 217.777344 182.570312 217.363281 182.351562 L 217.355469 182.347656 C 216.742188 182.082031 216.296875 181.789062 215.964844 181.589844 C 215.617188 181.386719 215.441406 181.25 215.441406 181.25 L 214.679688 180.640625 L 213.976562 180.011719 C 213.738281 179.800781 213.523438 179.585938 213.300781 179.375 L 212.164062 178.253906 L 211.386719 177.480469 L 211.289062 177.386719 L 211.261719 177.363281 C 210.691406 177.839844 216.113281 173.042969 213.828125 175.089844 L 213.871094 175.144531 L 214.039062 175.355469 L 214.375 175.78125 L 215.78125 177.554688 C 216.25 178.171875 216.722656 178.800781 217.160156 179.488281 C 217.335938 179.6875 217.730469 180.503906 218.050781 181.117188 L 218.296875 181.601562 L 218.421875 181.84375 L 218.496094 182.074219 L 218.792969 183.003906 C 218.996094 183.605469 219.1875 184.269531 219.378906 184.921875 L 219.453125 185.167969 C 219.484375 185.222656 219.4375 185.21875 219.402344 185.222656 L 219.296875 185.238281 L 218.851562 185.296875 L 217.921875 185.425781 L 217.078125 185.539062 L 216.660156 185.59375 C 216.507812 185.59375 216.34375 185.574219 216.1875 185.5625 L 215.238281 185.484375 C 214.910156 185.421875 214.558594 185.285156 214.222656 185.1875 C 213.882812 185.070312 213.53125 184.996094 213.203125 184.847656 L 212.542969 184.519531 C 212.144531 184.335938 211.816406 184.109375 211.453125 183.902344 C 210.757812 183.46875 210.105469 183 209.480469 182.519531 C 208.230469 181.550781 207.082031 180.519531 205.976562 179.46875 L 204.355469 177.882812 L 203.566406 177.101562 L 203.371094 176.910156 L 203.277344 176.8125 L 203.25 176.789062 C 201.183594 179.058594 206.03125 173.664062 205.546875 174.234375 L 205.601562 174.28125 L 206.027344 174.675781 L 207.734375 176.25 L 208.585938 177.035156 L 209.367188 177.875 L 211.585938 180.28125 L 213.648438 182.789062 C 214.355469 183.613281 214.964844 184.496094 215.625 185.347656 L 216.601562 186.636719 L 216.621094 186.667969 C 216.992188 186.082031 213.46875 191.808594 214.953125 189.382812 L 214.894531 189.371094 L 214.773438 189.34375 L 214.539062 189.296875 L 214.066406 189.191406 C 213.765625 189.101562 213.460938 189.015625 213.167969 188.914062 C 210.828125 188.054688 208.972656 186.667969 207.269531 185.269531 C 206.417969 184.566406 205.609375 183.839844 204.820312 183.132812 L 202.449219 181.015625 C 196.078125 175.308594 190.140625 169.277344 183.355469 164.5 L 181.984375 163.53125 L 181.898438 163.46875 L 181.878906 163.453125 C 186.25 158.203125 183.097656 162.003906 184.074219 160.832031 L 184.082031 160.84375 L 184.121094 160.878906 L 184.570312 161.328125 L 185.167969 161.921875 C 185.957031 162.730469 186.785156 163.484375 187.601562 164.25 C 188.417969 165.023438 189.285156 165.722656 190.121094 166.464844 L 192.761719 168.558594 L 198.179688 172.871094 C 199.960938 174.34375 201.699219 175.878906 203.464844 177.378906 L 204.769531 178.503906 C 205.15625 178.855469 205.585938 179.203125 206.019531 179.558594 C 206.894531 180.265625 207.808594 180.984375 208.710938 181.75 C 209.617188 182.519531 210.519531 183.328125 211.378906 184.289062 C 211.804688 184.78125 212.226562 185.292969 212.597656 185.933594 C 212.789062 186.230469 212.949219 186.605469 213.105469 186.972656 L 213.121094 187.003906 C 213.101562 186.863281 213.316406 188.164062 213.222656 187.703125 C 213.21875 187.761719 213.210938 187.820312 213.203125 187.878906 C 213.164062 188.113281 213.078125 188.355469 212.964844 188.550781 C 212.851562 188.753906 212.640625 188.984375 212.417969 189.132812 C 212.167969 189.300781 212.027344 189.339844 211.816406 189.402344 C 211.730469 189.425781 211.605469 189.449219 211.476562 189.457031 C 211.546875 189.492188 210.023438 189.179688 210.667969 189.308594 L 210.65625 189.300781 L 210.601562 189.277344 L 210.496094 189.222656 L 210.070312 189.011719 C 207.78125 187.894531 205.855469 186.367188 204.089844 184.84375 L 201.5 182.570312 L 198.898438 180.25 C 195.511719 177.128906 192.308594 173.917969 188.921875 171.011719 C 188.5 170.648438 188.085938 170.265625 187.652344 169.921875 L 186.347656 168.898438 L 185.042969 167.871094 L 183.683594 166.953125 L 182.328125 166.035156 C 181.871094 165.738281 181.382812 165.507812 180.914062 165.242188 L 179.496094 164.464844 L 179.316406 164.371094 L 179.230469 164.320312 L 179.21875 164.316406 C 180.175781 163.1875 177.058594 166.832031 181.363281 161.78125 L 181.375 161.800781 L 181.40625 161.839844 L 182.097656 162.753906 C 183.390625 164.34375 185.066406 165.726562 186.832031 167.082031 L 189.558594 169.128906 L 192.269531 171.226562 C 195.867188 174.027344 199.492188 176.878906 202.878906 180.074219 C 204.785156 181.851562 206.597656 183.765625 208.265625 185.820312 C 208.476562 186.078125 208.699219 186.320312 208.898438 186.589844 L 209.472656 187.40625 L 210.625 189.042969 L 210.914062 189.453125 L 210.921875 189.464844 C 211.382812 188.925781 206.980469 194.242188 208.835938 191.988281 L 208.804688 191.972656 L 208.742188 191.945312 L 208.621094 191.890625 L 208.375 191.78125 C 208.050781 191.628906 207.707031 191.5 207.402344 191.328125 C 206.78125 190.996094 206.171875 190.648438 205.605469 190.265625 C 204.460938 189.515625 203.398438 188.699219 202.398438 187.875 L 200.160156 186.035156 L 199.417969 185.371094 C 197.453125 183.605469 195.644531 181.8125 193.820312 180.019531 C 190.195312 176.457031 186.59375 172.933594 182.53125 170.234375 C 182.027344 169.890625 181.5 169.59375 180.988281 169.273438 C 180.46875 168.964844 179.933594 168.699219 179.40625 168.410156 C 179.140625 168.277344 178.867188 168.164062 178.597656 168.039062 L 178.191406 167.851562 L 177.988281 167.761719 L 177.835938 167.691406 L 177.824219 167.683594 C 176.058594 170.089844 180.210938 164.398438 179.789062 164.988281 L 179.808594 165.007812 L 181.042969 166.316406 C 182.699219 168.054688 184.65625 169.628906 186.617188 171.25 C 188.742188 172.949219 190.726562 174.757812 192.757812 176.523438 L 198.828125 181.851562 C 200.851562 183.617188 202.886719 185.4375 204.863281 187.101562 C 205.378906 187.539062 205.898438 187.957031 206.417969 188.417969 L 207.980469 189.824219 L 209.484375 191.414062 L 209.578125 191.515625 C 206.15625 197.066406 208.617188 193.050781 207.847656 194.285156 L 207.699219 194.238281 L 207.351562 194.128906 C 207.117188 194.054688 206.894531 193.96875 206.710938 193.871094 C 206.519531 193.773438 206.320312 193.675781 206.132812 193.574219 L 205.625 193.257812 C 204.300781 192.378906 203.378906 191.488281 202.363281 190.777344 L 199.167969 188.214844 C 198.105469 187.355469 197.023438 186.507812 195.984375 185.644531 L 192.925781 183.039062 L 189.851562 180.417969 C 188.792969 179.519531 187.789062 178.589844 186.804688 177.679688 C 184.835938 175.855469 182.917969 174.066406 180.855469 172.625 C 180.570312 172.425781 180.285156 172.21875 179.996094 172.03125 L 179.109375 171.519531 L 178.667969 171.261719 L 178.585938 171.214844 L 178.570312 171.207031 C 176.71875 173.589844 181.078125 167.945312 180.636719 168.53125 L 180.726562 168.617188 L 180.90625 168.792969 L 181.628906 169.5 L 181.992188 169.855469 L 182.40625 170.203125 L 183.238281 170.898438 L 184.992188 172.367188 C 185.582031 172.894531 186.171875 173.503906 186.757812 174.074219 L 188.265625 175.710938 L 191.269531 178.972656 C 192.25 180.078125 193.332031 181.101562 194.371094 182.164062 L 197.507812 185.324219 L 203.890625 191.625 L 207.054688 194.832031 L 208.636719 196.4375 L 208.835938 196.636719 L 208.882812 196.6875 C 204.675781 202.03125 207.707031 198.164062 206.765625 199.355469 L 206.75 199.34375 L 206.59375 199.246094 L 206.097656 198.933594 L 205.105469 198.304688 C 202.507812 196.578125 200.171875 194.6875 197.8125 192.875 C 193.136719 189.210938 188.273438 185.742188 183.585938 181.910156 C 181.195312 179.894531 178.796875 177.867188 176.605469 175.578125 L 175.769531 174.734375 L 175.5625 174.523438 L 175.457031 174.417969 L 175.40625 174.363281 L 175.378906 174.339844 C 174.871094 174.882812 179.746094 169.535156 177.691406 171.804688 L 177.703125 171.820312 L 178.167969 172.214844 L 180.015625 173.8125 C 180.613281 174.355469 181.140625 174.933594 181.707031 175.496094 L 182.542969 176.34375 L 183.328125 177.199219 C 184.382812 178.355469 185.421875 179.460938 186.453125 180.554688 C 187.507812 181.648438 188.632812 182.707031 189.71875 183.78125 L 196.304688 190.210938 L 202.945312 196.632812 C 203.972656 197.574219 205.21875 198.574219 206.394531 199.652344 L 207.28125 200.488281 L 208.152344 201.390625 L 208.980469 202.371094 L 209.367188 202.910156 L 209.558594 203.183594 L 209.699219 203.386719 L 209.722656 203.421875 L 209.734375 203.4375 C 210.21875 202.910156 205.609375 208.128906 207.550781 205.914062 C 204.476562 204.457031 201.964844 202.320312 199.660156 200.269531 L 192.730469 194.164062 L 184.492188 186.914062 L 180.371094 183.285156 C 178.894531 181.972656 177.667969 180.597656 176.40625 179.335938 C 175.152344 178.082031 173.882812 176.902344 172.546875 176.109375 L 172.046875 175.820312 L 171.921875 175.75 L 171.90625 175.738281 C 172.785156 174.507812 169.921875 178.480469 173.867188 172.980469 L 173.898438 173.011719 L 173.957031 173.074219 L 174.195312 173.324219 L 177.050781 176.324219 L 184.601562 184.246094 C 189.648438 189.390625 195.28125 193.984375 200.835938 198.796875 C 202.226562 200 203.597656 201.238281 204.976562 202.464844 C 206.3125 203.753906 207.699219 204.976562 208.992188 206.316406 L 210.9375 208.324219 L 211.425781 208.828125 L 211.546875 208.953125 L 211.5625 208.96875 C 207.09375 214.128906 210.3125 210.390625 209.3125 211.539062 L 209.273438 211.515625 L 209.203125 211.460938 L 208.917969 211.253906 L 207.777344 210.421875 C 207.003906 209.875 206.269531 209.289062 205.546875 208.699219 C 204.816406 208.113281 204.09375 207.519531 203.398438 206.902344 C 201.921875 205.652344 200.496094 204.300781 199.089844 203.039062 L 196.992188 201.140625 L 195.941406 200.191406 L 194.859375 199.273438 C 191.988281 196.8125 189.011719 194.433594 186.054688 192.023438 C 184.582031 190.828125 183.066406 189.609375 181.589844 188.339844 C 180.121094 187.070312 178.703125 185.777344 177.285156 184.511719 C 174.457031 181.988281 171.625 179.539062 168.527344 177.667969 L 168.242188 177.488281 L 168.097656 177.394531 L 168.082031 177.386719 C 172.386719 172.15625 169.28125 175.941406 170.246094 174.78125 L 170.335938 174.867188 L 170.800781 175.332031 L 171.726562 176.265625 C 172.371094 176.875 173.117188 177.445312 173.808594 178.039062 L 176.054688 179.796875 C 176.8125 180.425781 177.597656 181.039062 178.335938 181.683594 C 181.148438 184.339844 184.035156 186.9375 186.652344 189.757812 C 189.371094 192.496094 191.90625 195.367188 194.503906 198.191406 C 197.054688 201.023438 199.578125 203.882812 202.179688 206.667969 L 205.980469 210.769531 L 209.84375 214.695312 L 211.773438 216.660156 C 212.089844 216.988281 212.472656 217.292969 212.816406 217.609375 L 213.308594 218.050781 L 213.554688 218.269531 L 213.785156 218.445312 L 214.238281 218.796875 C 214.382812 218.871094 214.523438 218.941406 214.660156 219.023438 L 214.765625 219.085938 L 214.816406 219.113281 L 214.839844 219.132812 C 213.9375 220.3125 216.875 216.5 212.824219 221.78125 L 212.808594 221.765625 L 212.597656 221.515625 L 212.171875 221.015625 C 211.628906 220.335938 210.972656 219.71875 210.363281 219.078125 C 207.789062 216.570312 204.828125 214.339844 201.949219 211.824219 L 193.515625 204.425781 C 190.707031 201.988281 187.921875 199.457031 185.125 196.960938 L 180.9375 193.203125 C 179.542969 191.921875 178.171875 190.578125 176.863281 189.230469 C 174.234375 186.535156 171.714844 183.824219 168.996094 181.429688 C 168.335938 180.800781 167.621094 180.261719 166.921875 179.699219 C 166.238281 179.117188 165.496094 178.636719 164.765625 178.144531 L 164.214844 177.769531 L 163.941406 177.585938 L 163.90625 177.5625 C 163.441406 178.140625 167.863281 172.445312 166 174.863281 L 166.203125 175.066406 L 169.199219 178.050781 C 169.917969 178.773438 170.652344 179.480469 171.359375 180.214844 L 173.460938 182.441406 C 174.863281 183.921875 176.269531 185.429688 177.660156 186.824219 C 180.390625 189.707031 183.378906 192.402344 186.347656 195.152344 C 187.835938 196.539062 189.355469 197.863281 190.824219 199.300781 L 195.21875 203.566406 C 198.027344 206.378906 201.0625 209.042969 204.035156 211.855469 C 204.769531 212.574219 205.519531 213.269531 206.246094 214 C 206.96875 214.742188 207.699219 215.46875 208.410156 216.226562 C 209.101562 217.003906 209.804688 217.773438 210.484375 218.5625 L 211.460938 219.796875 L 211.949219 220.417969 L 212.195312 220.726562 L 212.316406 220.878906 L 212.394531 220.976562 C 212.917969 220.457031 207.921875 225.589844 210.027344 223.410156 L 209.984375 223.378906 C 206.492188 220.925781 203.566406 217.941406 200.710938 215.09375 C 199.28125 213.660156 197.855469 212.285156 196.394531 210.96875 C 195.652344 210.328125 194.902344 209.722656 194.140625 209.085938 L 191.777344 207.152344 L 187.050781 203.28125 L 184.6875 201.34375 L 182.386719 199.351562 C 174.277344 192.398438 166.378906 185.277344 158.207031 178.527344 L 156.683594 177.246094 L 156.542969 177.125 L 156.53125 177.113281 C 157.414062 175.863281 154.539062 179.898438 158.503906 174.308594 L 158.535156 174.328125 L 158.761719 174.480469 L 159.214844 174.792969 C 159.515625 175 159.828125 175.203125 160.113281 175.421875 C 161.242188 176.3125 162.292969 177.257812 163.257812 178.230469 C 165.199219 180.164062 166.941406 182.167969 168.800781 183.863281 C 172.792969 187.472656 176.574219 191.394531 180.039062 195.527344 C 181.007812 196.722656 182.003906 197.898438 182.953125 199.109375 C 183.894531 200.339844 184.792969 201.523438 185.726562 202.679688 C 186.652344 203.839844 187.621094 204.917969 188.625 205.941406 C 189.144531 206.421875 189.652344 206.929688 190.203125 207.359375 L 190.609375 207.695312 L 190.710938 207.777344 C 189.8125 209.023438 192.792969 205.054688 188.707031 210.578125 L 188.648438 210.535156 L 188.410156 210.355469 L 187.460938 209.648438 C 182.417969 205.835938 178.3125 201.21875 174.03125 197.023438 C 169.761719 192.878906 165.015625 189.203125 160.21875 185.449219 C 159.015625 184.492188 157.832031 183.589844 156.617188 182.589844 L 155.019531 181.238281 L 154.851562 181.089844 L 153.503906 179.957031 C 152.609375 179.242188 151.710938 178.574219 150.796875 178.046875 "></path><path style=" stroke:none;fill-rule:nonzero;fill:#fc1270;fill-opacity:1;" d="M 182.789062 159.375 C 182.828125 159.421875 182.84375 159.4375 182.835938 159.558594 C 182.839844 159.773438 182.835938 159.941406 182.804688 160.199219 C 182.777344 160.445312 182.730469 160.726562 182.628906 161.003906 C 182.433594 161.523438 181.988281 162.125 180.574219 161.84375 C 180.527344 161.835938 180.328125 161.757812 180.25 161.691406 L 179.957031 161.355469 L 179.808594 161.1875 L 179.789062 161.164062 C 179.289062 161.703125 184.15625 156.457031 182.097656 158.679688 L 182.101562 158.679688 L 182.113281 158.691406 L 182.152344 158.714844 L 182.226562 158.765625 L 182.820312 159.167969 L 184.011719 159.96875 L 186.371094 161.550781 C 187.191406 162.101562 188.007812 162.652344 188.832031 163.152344 L 190.066406 163.917969 L 190.679688 164.304688 L 191.3125 164.640625 L 192.574219 165.316406 L 193.203125 165.652344 L 193.519531 165.824219 L 193.597656 165.867188 L 193.601562 165.867188 C 195.609375 163.746094 190.867188 168.757812 191.355469 168.238281 L 191.34375 168.226562 L 191.332031 168.210938 L 191.3125 168.175781 L 191.222656 168.042969 L 190.523438 166.957031 L 189.664062 165.925781 C 188.652344 164.8125 187.503906 163.761719 186.253906 162.722656 C 185.023438 161.679688 183.714844 160.628906 182.457031 159.421875 L 181.984375 158.957031 L 181.75 158.726562 L 181.632812 158.609375 L 181.574219 158.554688 L 181.542969 158.523438 L 181.53125 158.507812 L 181.527344 158.503906 C 179.320312 160.628906 184.527344 155.613281 183.992188 156.128906 L 184 156.136719 L 184.863281 156.933594 C 185.449219 157.457031 185.996094 158.007812 186.613281 158.515625 C 187.863281 159.519531 189.09375 160.527344 190.417969 161.5 L 194.179688 164.339844 L 194.414062 164.519531 L 194.429688 164.53125 L 194.433594 164.535156 C 193.269531 165.445312 197.046875 162.496094 191.824219 166.578125 L 191.820312 166.574219 L 191.804688 166.546875 L 191.777344 166.492188 L 191.714844 166.386719 L 191.480469 165.953125 C 191.324219 165.664062 191.183594 165.371094 190.960938 165.097656 L 190.355469 164.261719 L 189.644531 163.453125 C 188.664062 162.371094 187.546875 161.34375 186.386719 160.226562 C 185.816406 159.691406 185.238281 159.074219 184.667969 158.480469 L 183.835938 157.503906 L 183.632812 157.257812 L 183.613281 157.238281 C 183.167969 157.804688 187.488281 152.308594 185.660156 154.636719 L 185.671875 154.640625 L 185.800781 154.707031 L 185.96875 154.792969 C 186.1875 154.914062 186.433594 155.027344 186.625 155.160156 C 187.722656 155.867188 188.527344 156.671875 189.28125 157.378906 C 189.652344 157.734375 190.015625 158.0625 190.367188 158.363281 L 190.734375 158.652344 L 190.84375 158.742188 L 190.859375 158.753906 C 185.914062 163.242188 189.488281 159.996094 188.382812 161 L 188.382812 160.996094 L 188.378906 160.992188 L 188.375 160.984375 L 188.355469 160.953125 L 188.3125 160.890625 L 187.644531 159.898438 C 187.417969 159.5625 187.128906 159.21875 186.875 158.878906 C 186.875 158.878906 186.636719 158.519531 186.242188 157.925781 C 186.042969 157.617188 185.796875 157.269531 185.539062 156.839844 C 185.285156 156.390625 185.007812 155.894531 184.714844 155.367188 C 185.308594 154.746094 185.925781 154.109375 186.570312 153.4375 C 186.933594 153.710938 187.347656 153.992188 187.6875 154.304688 C 188.015625 154.617188 188.367188 154.941406 188.644531 155.25 C 188.929688 155.546875 189.214844 155.84375 189.492188 156.136719 L 189.648438 156.292969 L 189.671875 156.320312 L 189.683594 156.332031 C 189.992188 156.070312 187.015625 158.621094 188.273438 157.539062 L 188.265625 157.523438 L 188.160156 157.25 C 188.089844 157.070312 188.019531 156.890625 187.949219 156.714844 C 187.328125 155.308594 186.929688 154.261719 186.933594 153.621094 C 186.882812 152.996094 187.019531 152.816406 187.226562 152.921875 C 187.449219 153.023438 187.734375 153.398438 188.117188 153.90625 C 188.335938 154.160156 188.550781 154.445312 188.808594 154.769531 C 189.082031 155.113281 189.355469 155.4375 189.65625 155.871094 C 189.636719 155.816406 189.714844 155.917969 189.867188 156.136719 C 189.941406 156.25 190.035156 156.386719 190.148438 156.550781 L 190.15625 156.566406 C 190.535156 156.246094 186.894531 159.367188 188.433594 158.046875 L 188.433594 158.042969 L 188.425781 158.042969 L 188.421875 158.039062 L 188.386719 158.015625 L 188.324219 157.972656 C 188.277344 157.941406 188.234375 157.910156 188.1875 157.878906 C 188.09375 157.816406 187.996094 157.75 187.890625 157.675781 C 187.054688 157.113281 186.113281 156.320312 185.226562 155.9375 L 187.15625 153.925781 C 187.488281 154.347656 187.8125 154.765625 188.113281 155.152344 C 189.101562 156.28125 189.867188 157.152344 189.867188 157.152344 C 190.125 157.480469 190.382812 157.816406 190.632812 158.207031 L 191.3125 159.226562 L 191.324219 159.242188 L 191.332031 159.253906 L 191.332031 159.257812 L 191.335938 159.257812 C 190.222656 160.269531 193.824219 157 188.84375 161.523438 L 188.839844 161.519531 L 188.769531 161.464844 L 188.460938 161.222656 C 188.234375 161.050781 188.027344 160.878906 187.839844 160.703125 C 187.4375 160.355469 187.085938 160.015625 186.738281 159.6875 C 186.046875 159.035156 185.40625 158.4375 184.796875 158.058594 C 184.667969 157.96875 184.550781 157.925781 184.429688 157.855469 L 184.339844 157.804688 L 184.273438 157.769531 L 184.265625 157.765625 C 182.425781 160.105469 186.773438 154.574219 186.328125 155.144531 L 186.332031 155.148438 L 186.339844 155.160156 L 186.511719 155.363281 L 187.203125 156.175781 C 187.714844 156.707031 188.207031 157.234375 188.773438 157.765625 C 189.863281 158.824219 191.058594 159.914062 192.183594 161.148438 L 193.019531 162.105469 L 193.792969 163.164062 C 194.0625 163.503906 194.277344 163.910156 194.492188 164.3125 L 194.8125 164.914062 L 194.894531 165.0625 L 194.933594 165.136719 L 194.953125 165.175781 L 194.957031 165.1875 C 189.710938 169.296875 193.5 166.324219 192.328125 167.242188 L 192.3125 167.226562 L 192.078125 167.050781 L 188.351562 164.234375 C 187.023438 163.265625 185.714844 162.195312 184.402344 161.140625 C 183.75 160.605469 183.132812 159.992188 182.5 159.417969 L 181.554688 158.542969 L 181.546875 158.535156 C 181.003906 159.054688 186.234375 154.019531 184.023438 156.152344 L 184.039062 156.167969 L 184.117188 156.242188 L 184.21875 156.34375 L 184.421875 156.542969 L 184.832031 156.945312 C 187.050781 159.085938 189.851562 160.984375 192.230469 163.644531 L 193.277344 164.90625 L 194.195312 166.320312 L 194.308594 166.5 L 194.335938 166.542969 L 194.351562 166.566406 L 194.355469 166.578125 L 194.359375 166.582031 C 194.851562 166.066406 190.09375 171.085938 192.105469 168.960938 L 192.105469 168.957031 L 192.019531 168.914062 L 191.675781 168.730469 L 190.996094 168.367188 L 189.628906 167.632812 L 188.949219 167.269531 L 188.300781 166.863281 L 187.003906 166.058594 C 186.125 165.53125 185.296875 164.96875 184.46875 164.410156 L 182.09375 162.820312 L 180.335938 161.636719 L 180.261719 161.585938 L 180.222656 161.5625 L 180.214844 161.554688 L 180.210938 161.554688 L 180.207031 161.550781 C 178.144531 163.773438 183.011719 158.523438 182.511719 159.0625 L 182.523438 159.078125 L 182.613281 159.175781 L 182.789062 159.375 "></path><path style=" stroke:none;fill-rule:nonzero;fill:#fc1270;fill-opacity:1;" d="M 150.378906 178.910156 C 150.320312 178.851562 150.300781 178.832031 150.277344 178.695312 C 150.074219 177.816406 150.164062 176.160156 152.484375 176.359375 C 152.527344 176.359375 152.710938 176.398438 152.777344 176.445312 L 156.636719 180.21875 L 156.757812 180.335938 L 157.234375 180.785156 L 160.148438 183.457031 C 162.058594 185.28125 164.113281 186.90625 166.117188 188.601562 C 170.277344 191.847656 174.609375 195.085938 178.609375 198.863281 C 180.472656 200.820312 182.394531 202.808594 184.152344 204.714844 L 185.492188 206.15625 L 186.164062 206.878906 C 186.371094 207.082031 186.566406 207.257812 186.816406 207.476562 C 187.300781 207.902344 187.851562 208.359375 188.398438 208.921875 C 188.671875 209.199219 188.949219 209.523438 189.207031 209.875 L 189.398438 210.160156 L 189.488281 210.304688 L 189.558594 210.410156 C 185.097656 215.210938 188.304688 211.730469 187.300781 212.800781 L 186.8125 212.523438 C 184.132812 211.082031 182.117188 208.976562 180.308594 206.972656 C 179.398438 205.960938 178.542969 204.957031 177.664062 204.015625 C 176.789062 203.074219 175.878906 202.207031 174.902344 201.324219 L 173.683594 200.214844 L 172.414062 199.148438 C 171.574219 198.433594 170.703125 197.730469 169.828125 197.023438 L 167.207031 194.875 C 166.304688 194.132812 165.523438 193.484375 164.625 192.800781 C 162.871094 191.445312 161 190.113281 159.246094 188.464844 C 158.8125 188.042969 158.371094 187.636719 157.96875 187.164062 L 157.660156 186.824219 L 157.425781 186.566406 L 157.40625 186.542969 L 157.398438 186.535156 C 158.476562 185.457031 154.972656 188.929688 159.808594 184.117188 L 159.851562 184.152344 L 160.5 184.734375 C 161.34375 185.523438 162.261719 186.261719 163.050781 187.09375 C 166.347656 190.328125 169.253906 193.8125 172.222656 197.144531 L 174.464844 199.605469 L 176.773438 201.96875 C 177.554688 202.742188 178.382812 203.460938 179.183594 204.210938 C 179.597656 204.597656 179.972656 204.910156 180.386719 205.246094 L 181.699219 206.257812 C 182.546875 206.929688 183.4375 207.59375 184.28125 208.488281 C 184.496094 208.6875 184.691406 208.957031 184.894531 209.195312 C 185.097656 209.4375 185.292969 209.6875 185.460938 209.988281 L 185.847656 210.644531 L 185.878906 210.699219 C 184.859375 211.722656 188.167969 208.425781 183.597656 213 L 183.585938 212.992188 L 183.5625 212.980469 L 183.46875 212.925781 L 182.703125 212.496094 C 180.664062 211.34375 178.960938 209.878906 177.40625 208.40625 C 175.839844 206.945312 174.375 205.425781 172.875 204.09375 C 172.105469 203.410156 171.382812 202.878906 170.523438 202.089844 L 169.273438 200.984375 C 168.847656 200.609375 168.511719 200.28125 168.125 199.925781 L 167.28125 199.140625 L 167.070312 198.941406 L 167.035156 198.910156 L 167.015625 198.894531 L 167.007812 198.886719 C 164.609375 200.675781 170.265625 196.4375 169.6875 196.878906 L 170.375 198.152344 C 170.78125 199.023438 171.417969 199.796875 171.953125 200.613281 C 172.21875 201.023438 172.574219 201.390625 172.878906 201.785156 C 173.203125 202.167969 173.496094 202.5625 173.84375 202.9375 C 174.542969 203.679688 175.199219 204.4375 175.945312 205.167969 C 177.382812 206.640625 178.914062 208.101562 180.398438 209.640625 C 180.777344 210.011719 181.136719 210.429688 181.503906 210.828125 L 182.054688 211.429688 L 182.328125 211.730469 L 182.464844 211.882812 L 182.480469 211.898438 C 184.746094 209.847656 179.40625 214.707031 179.949219 214.203125 L 179.90625 214.160156 L 179.839844 214.097656 L 177.640625 212.015625 C 175.863281 210.421875 173.96875 208.898438 172.070312 207.253906 C 171.105469 206.488281 170.210938 205.527344 169.289062 204.652344 L 168.601562 203.980469 L 168.347656 203.726562 L 168.324219 203.707031 C 169.585938 202.886719 165.496094 205.539062 171.148438 201.863281 L 171.179688 201.925781 L 171.367188 202.292969 C 171.625 202.78125 171.835938 203.28125 172.164062 203.753906 C 173.339844 205.683594 174.878906 207.5 176.480469 209.3125 L 178.933594 212.066406 L 179.550781 212.777344 L 179.855469 213.132812 L 180.011719 213.3125 L 180.027344 213.335938 C 178.914062 214.371094 182.53125 211.019531 177.53125 215.664062 L 177.515625 215.648438 L 177.472656 215.609375 L 177.390625 215.53125 L 176.050781 214.289062 L 173.511719 211.929688 L 172.238281 210.75 L 170.964844 209.519531 L 168.410156 207.050781 L 167.136719 205.820312 L 166.976562 205.664062 L 166.894531 205.585938 L 166.847656 205.539062 C 172.089844 201.183594 168.300781 204.335938 169.472656 203.363281 L 169.476562 203.371094 L 169.492188 203.390625 L 169.753906 203.726562 L 170.273438 204.398438 C 171.621094 206.203125 173.164062 207.9375 174.628906 209.796875 C 175.371094 210.726562 176.125 211.625 176.804688 212.652344 L 177.851562 214.148438 L 178.113281 214.523438 C 178.601562 214 173.867188 219.109375 175.867188 216.945312 L 175.863281 216.941406 L 175.847656 216.933594 L 175.824219 216.917969 L 175.769531 216.890625 L 175.667969 216.828125 L 175.457031 216.707031 L 174.628906 216.226562 C 172.980469 215.183594 171.523438 213.972656 170.152344 212.710938 C 169.460938 212.085938 168.808594 211.433594 168.164062 210.777344 L 167.207031 209.789062 L 166.742188 209.289062 L 166.332031 208.851562 L 166.324219 208.847656 C 171.835938 204.910156 167.855469 207.757812 169.085938 206.878906 L 169.085938 206.882812 L 169.117188 206.933594 C 170.679688 209.816406 173.167969 212.367188 175.367188 215.421875 L 175.761719 215.976562 L 175.859375 216.117188 L 175.882812 216.152344 L 175.894531 216.164062 C 174.886719 217.257812 178.144531 213.734375 173.640625 218.609375 L 173.625 218.597656 L 173.550781 218.550781 L 173.253906 218.367188 L 172.078125 217.613281 C 171.671875 217.367188 171.3125 217.101562 170.960938 216.828125 L 169.886719 216.019531 L 167.851562 214.410156 L 166.855469 213.664062 L 166.359375 213.289062 L 166.113281 213.105469 L 166.105469 213.097656 C 167.226562 212.140625 163.59375 215.242188 168.613281 210.945312 L 168.617188 210.949219 L 168.640625 210.996094 L 168.675781 211.054688 L 168.742188 211.175781 C 169.429688 212.484375 170.464844 213.746094 171.566406 215.070312 C 172.117188 215.734375 172.683594 216.417969 173.238281 217.152344 L 173.648438 217.71875 L 173.800781 217.929688 L 173.828125 217.964844 L 173.832031 217.972656 L 173.835938 217.976562 C 176.113281 215.980469 170.738281 220.703125 171.289062 220.214844 L 171.273438 220.203125 L 171.042969 220.011719 L 170.117188 219.25 C 169.476562 218.761719 168.835938 218.300781 168.140625 217.800781 L 167.101562 217.058594 L 166.046875 216.25 L 165.785156 216.046875 L 165.652344 215.945312 L 165.636719 215.929688 L 165.628906 215.925781 C 166.863281 215.230469 162.855469 217.472656 168.398438 214.371094 L 168.417969 214.453125 L 168.511719 214.878906 C 168.542969 215.023438 168.621094 215.179688 168.671875 215.332031 C 168.71875 215.484375 168.78125 215.636719 168.867188 215.796875 C 169.140625 216.425781 169.574219 217.082031 169.996094 217.738281 L 171.429688 219.816406 L 171.519531 219.953125 L 171.53125 219.964844 C 170.367188 220.933594 174.140625 217.804688 168.917969 222.132812 L 168.878906 222.09375 L 168.820312 222.039062 L 168.597656 221.816406 L 168.148438 221.371094 L 167.253906 220.488281 L 166.890625 220.125 L 166.742188 219.996094 L 165.777344 219.136719 L 165.292969 218.707031 L 165.054688 218.488281 L 165.023438 218.464844 L 165.003906 218.445312 C 164.414062 218.808594 170.15625 215.277344 167.726562 216.773438 L 167.726562 216.78125 L 167.742188 216.832031 L 167.773438 216.9375 C 167.773438 216.9375 167.777344 216.953125 167.804688 217.089844 C 167.824219 217.183594 167.882812 217.488281 168.140625 218.101562 C 168.242188 218.351562 168.378906 218.652344 168.5625 219.054688 C 168.632812 219.214844 168.707031 219.382812 168.78125 219.554688 C 168.855469 219.746094 168.933594 219.949219 169.011719 220.160156 C 169.0625 220.320312 169.109375 220.484375 169.160156 220.652344 L 169.195312 220.78125 L 169.199219 220.796875 L 169.203125 220.804688 L 169.203125 220.808594 C 171.023438 219.421875 166.722656 222.699219 167.164062 222.363281 L 167.140625 222.339844 L 167.097656 222.304688 L 166.929688 222.152344 C 166.390625 221.664062 165.820312 221.140625 165.25 220.617188 L 164.933594 220.324219 L 164.910156 220.300781 L 164.894531 220.289062 L 164.886719 220.28125 C 168.265625 218.601562 165.824219 219.816406 166.578125 219.441406 L 166.578125 219.449219 L 166.574219 219.503906 L 166.535156 219.964844 C 166.539062 220.105469 166.542969 220.246094 166.542969 220.382812 C 166.539062 220.457031 166.5625 220.511719 166.574219 220.578125 L 166.589844 220.671875 C 166.589844 220.691406 166.617188 220.804688 166.644531 220.847656 C 166.660156 220.878906 166.671875 220.914062 166.6875 220.945312 L 166.582031 221.054688 C 166.554688 221.089844 166.496094 221.132812 166.53125 221.152344 L 166.617188 221.289062 C 166.675781 221.375 166.730469 221.464844 166.785156 221.546875 C 166.835938 221.632812 166.886719 221.714844 166.9375 221.792969 L 166.972656 221.851562 L 166.976562 221.855469 L 166.976562 221.859375 C 167.625 221.914062 166.097656 221.78125 166.253906 221.792969 L 166.222656 221.761719 C 166.191406 221.734375 166.191406 221.722656 166.164062 221.730469 C 166.066406 221.785156 165.96875 221.902344 165.921875 221.996094 L 165.851562 222.144531 C 165.859375 222.207031 166.328125 222.449219 166.34375 222.523438 C 166.3125 222.671875 166.074219 222.671875 166.113281 222.859375 C 166.042969 222.929688 166.015625 222.992188 165.820312 223.109375 C 165.777344 223.148438 165.550781 223.207031 165.40625 223.175781 C 165.277344 223.148438 165.167969 223.074219 165.085938 222.996094 C 165.324219 222.992188 165.5625 222.988281 165.800781 222.984375 C 165.582031 223.152344 165.390625 223.226562 165.140625 223.242188 C 165.027344 223.25 164.871094 223.226562 164.738281 223.152344 C 164.601562 223.070312 164.503906 222.929688 164.484375 222.828125 C 164.429688 222.613281 164.476562 222.488281 164.511719 222.390625 C 164.550781 222.289062 164.597656 222.21875 164.640625 222.15625 C 164.820312 221.925781 164.957031 221.890625 165.046875 221.957031 C 165.136719 222.027344 165.164062 222.230469 165.230469 222.429688 C 165.242188 222.476562 165.285156 222.515625 165.285156 222.515625 C 165.070312 222.535156 164.96875 222.625 164.992188 222.609375 C 165.019531 222.59375 165.027344 222.375 164.964844 222.226562 L 164.929688 222.132812 C 164.929688 222.132812 164.914062 222.113281 164.933594 222.136719 C 164.953125 222.160156 164.984375 222.199219 165.015625 222.226562 L 165.5625 222.503906 C 165.53125 222.507812 165.5 222.582031 165.507812 222.582031 C 165.507812 222.5625 165.503906 222.570312 165.464844 222.488281 C 165.445312 222.464844 165.421875 222.441406 165.394531 222.425781 C 165.359375 222.382812 165.3125 222.335938 165.269531 222.296875 C 165.222656 222.257812 165.171875 222.226562 165.121094 222.195312 C 165.101562 222.183594 165.066406 222.164062 165.023438 222.128906 C 164.960938 222.085938 165.003906 222.113281 164.988281 222.101562 L 165.015625 221.945312 C 165.03125 221.84375 165.027344 221.722656 165.078125 221.664062 C 165.152344 221.714844 165.046875 221.640625 165.003906 221.585938 C 164.953125 221.535156 164.890625 221.492188 164.855469 221.4375 C 164.835938 221.40625 164.832031 221.414062 164.804688 221.371094 C 164.820312 221.4375 164.753906 221.320312 164.640625 221.0625 C 164.574219 220.933594 164.546875 220.773438 164.492188 220.578125 C 164.4375 220.382812 164.382812 220.15625 164.359375 219.925781 C 164.347656 219.804688 164.332031 219.679688 164.316406 219.550781 L 164.308594 219.5 L 164.304688 219.476562 L 164.304688 219.472656 C 162.539062 220.351562 166.714844 218.273438 166.285156 218.488281 L 166.296875 218.496094 L 166.367188 218.539062 L 166.507812 218.628906 C 166.695312 218.75 166.898438 218.878906 167.109375 219.011719 C 167.527344 219.28125 167.980469 219.570312 168.4375 219.863281 L 168.605469 219.972656 L 168.648438 220 L 168.667969 220.011719 L 168.679688 220.019531 C 167.726562 220.746094 170.8125 218.394531 166.542969 221.648438 L 166.539062 221.644531 L 166.539062 221.640625 L 166.503906 221.570312 L 166.371094 221.296875 C 166.234375 221.046875 166.082031 220.789062 165.90625 220.519531 C 165.699219 220.191406 165.503906 219.878906 165.320312 219.589844 C 165.167969 219.347656 165.023438 219.066406 164.898438 218.832031 C 164.777344 218.566406 164.667969 218.332031 164.585938 218.109375 C 164.496094 217.828125 164.425781 217.601562 164.378906 217.441406 L 164.375 217.4375 L 164.375 217.429688 C 165.589844 216.679688 161.652344 219.101562 167.101562 215.75 L 167.109375 215.757812 L 167.125 215.769531 L 167.15625 215.796875 C 167.175781 215.8125 167.191406 215.824219 167.207031 215.835938 C 167.230469 215.855469 167.246094 215.863281 167.246094 215.863281 L 169.109375 217.519531 L 169.277344 217.671875 L 169.644531 218.03125 L 170.539062 218.917969 L 170.988281 219.359375 L 171.308594 219.679688 C 166.050781 224.039062 169.847656 220.886719 168.675781 221.859375 L 168.671875 221.855469 L 168.667969 221.847656 L 168.582031 221.722656 L 167.152344 219.648438 C 166.667969 218.898438 166.167969 218.148438 165.757812 217.238281 C 165.644531 217.023438 165.550781 216.789062 165.464844 216.542969 C 165.378906 216.296875 165.28125 216.066406 165.214844 215.804688 L 165.035156 215 L 165.015625 214.898438 L 165.007812 214.847656 L 165.003906 214.839844 C 170.589844 211.714844 166.554688 213.976562 167.804688 213.277344 L 167.808594 213.285156 L 167.824219 213.296875 L 167.941406 213.386719 L 168.179688 213.566406 L 169.121094 214.289062 L 170.132812 215.015625 C 170.804688 215.496094 171.527344 216.015625 172.21875 216.546875 L 173.292969 217.429688 L 173.5625 217.652344 L 173.578125 217.664062 C 174.136719 217.175781 168.722656 221.933594 171.011719 219.917969 L 171.011719 219.914062 L 171.003906 219.90625 L 170.980469 219.875 L 170.9375 219.816406 L 170.851562 219.695312 L 170.5 219.210938 C 170.011719 218.566406 169.480469 217.921875 168.929688 217.257812 C 167.832031 215.929688 166.640625 214.519531 165.707031 212.765625 L 165.617188 212.601562 L 165.574219 212.523438 L 165.550781 212.480469 L 165.539062 212.460938 L 165.539062 212.457031 C 170.59375 208.128906 166.945312 211.257812 168.074219 210.292969 L 168.082031 210.300781 L 168.351562 210.5 L 168.890625 210.90625 L 169.96875 211.714844 L 171.996094 213.316406 L 172.988281 214.066406 C 173.316406 214.320312 173.648438 214.570312 173.984375 214.765625 L 174.988281 215.410156 L 175.238281 215.570312 L 175.300781 215.609375 L 175.316406 215.621094 C 170.789062 220.535156 174.0625 216.980469 173.050781 218.078125 L 173.039062 218.066406 L 173.019531 218.035156 L 172.929688 217.910156 L 172.578125 217.410156 C 170.609375 214.636719 168 212.011719 166.105469 208.566406 L 166.070312 208.507812 L 166.066406 208.503906 C 167.304688 207.617188 163.292969 210.476562 168.839844 206.519531 L 168.90625 206.585938 L 169.246094 206.949219 L 169.695312 207.429688 L 170.609375 208.378906 C 171.226562 208.996094 171.839844 209.617188 172.476562 210.195312 C 173.742188 211.359375 175.0625 212.445312 176.445312 213.320312 L 177.125 213.714844 L 177.292969 213.8125 L 177.378906 213.863281 L 177.421875 213.886719 L 177.445312 213.898438 L 177.453125 213.90625 L 177.460938 213.910156 C 179.476562 211.734375 174.71875 216.875 175.207031 216.34375 L 174.96875 216.003906 L 174.011719 214.636719 C 173.410156 213.71875 172.667969 212.835938 171.957031 211.941406 C 170.539062 210.144531 168.984375 208.398438 167.542969 206.46875 L 166.992188 205.757812 L 166.71875 205.402344 L 166.703125 205.382812 L 166.699219 205.375 C 167.875 204.398438 164.058594 207.5625 169.332031 203.179688 L 169.34375 203.1875 L 169.457031 203.300781 L 169.613281 203.449219 L 170.847656 204.644531 L 173.320312 207.027344 L 174.554688 208.222656 L 178.421875 211.8125 L 179.777344 213.074219 L 179.90625 213.191406 L 179.921875 213.207031 C 174.894531 217.875 178.527344 214.496094 177.402344 215.535156 L 177.382812 215.515625 L 177.238281 215.347656 L 176.355469 214.328125 L 173.914062 211.585938 C 172.277344 209.726562 170.617188 207.792969 169.234375 205.535156 C 168.863281 204.996094 168.578125 204.367188 168.269531 203.765625 L 168.042969 203.3125 L 168.015625 203.253906 L 168.007812 203.242188 L 168.003906 203.234375 C 173.683594 199.535156 169.582031 202.210938 170.851562 201.386719 L 170.949219 201.484375 L 171.105469 201.636719 L 171.738281 202.25 C 172.59375 203.058594 173.367188 203.90625 174.324219 204.671875 C 176.132812 206.234375 178.0625 207.789062 179.9375 209.464844 L 182.3125 211.71875 L 182.386719 211.789062 L 182.429688 211.832031 C 182.992188 211.335938 177.609375 216.203125 179.882812 214.140625 L 179.867188 214.121094 L 179.480469 213.699219 L 178.96875 213.136719 C 178.625 212.765625 178.300781 212.382812 177.929688 212.019531 C 176.5 210.539062 174.992188 209.097656 173.496094 207.566406 C 172.738281 206.828125 172.015625 206 171.277344 205.214844 C 170.910156 204.816406 170.574219 204.371094 170.222656 203.953125 C 169.878906 203.515625 169.503906 203.121094 169.195312 202.652344 C 168.574219 201.71875 167.875 200.851562 167.375 199.816406 L 166.570312 198.316406 C 165.980469 198.746094 171.671875 194.503906 169.269531 196.304688 L 169.296875 196.332031 L 169.332031 196.363281 L 169.40625 196.433594 L 169.851562 196.84375 L 170.441406 197.394531 C 170.828125 197.75 171.242188 198.152344 171.605469 198.46875 L 172.714844 199.453125 C 173.394531 200.09375 174.359375 200.816406 175.15625 201.53125 C 176.796875 202.992188 178.25 204.5 179.75 205.902344 C 181.238281 207.3125 182.761719 208.59375 184.382812 209.503906 L 184.988281 209.851562 L 185.0625 209.894531 L 185.082031 209.90625 L 185.09375 209.910156 C 180.515625 214.511719 183.820312 211.183594 182.796875 212.207031 L 182.777344 212.179688 L 182.703125 212.058594 L 182.558594 211.820312 C 182.480469 211.65625 182.347656 211.496094 182.210938 211.335938 C 182.074219 211.175781 181.96875 211.011719 181.792969 210.855469 C 181.203125 210.214844 180.410156 209.605469 179.609375 208.980469 C 175.863281 206.152344 172.683594 202.820312 169.660156 199.429688 C 166.644531 196.042969 163.777344 192.613281 160.648438 189.546875 C 160.265625 189.144531 159.867188 188.777344 159.460938 188.417969 L 158.246094 187.328125 L 157.640625 186.78125 L 157.601562 186.746094 C 162.449219 181.914062 158.949219 185.410156 160.035156 184.335938 L 160.042969 184.34375 L 160.058594 184.363281 L 160.121094 184.433594 L 160.507812 184.855469 C 160.832031 185.242188 161.222656 185.597656 161.59375 185.960938 C 163.117188 187.398438 164.914062 188.691406 166.71875 190.082031 C 167.613281 190.757812 168.5625 191.546875 169.398438 192.230469 L 171.996094 194.359375 C 172.871094 195.066406 173.746094 195.777344 174.621094 196.519531 L 175.933594 197.625 L 177.210938 198.785156 C 181.460938 202.402344 184.296875 207.304688 188.425781 209.492188 L 188.800781 209.710938 C 187.808594 210.785156 191.054688 207.324219 186.582031 212.125 L 186.570312 212.109375 L 186.546875 212.074219 L 186.417969 211.875 C 186.28125 211.695312 186.125 211.503906 185.929688 211.308594 C 185.550781 210.917969 185.078125 210.515625 184.558594 210.0625 C 184.308594 209.847656 184.007812 209.574219 183.738281 209.308594 L 181.664062 207.085938 C 179.808594 205.066406 178.019531 203.226562 176.210938 201.320312 C 172.449219 197.769531 168.230469 194.601562 163.984375 191.296875 C 161.914062 189.550781 159.789062 187.859375 157.839844 186 L 154.859375 183.265625 L 154.253906 182.695312 L 150.378906 178.910156 "></path></g></svg>